<svg id="Layer_1" data-name="Layer 1" xmlns="http://www.w3.org/2000/svg" xmlns:xlink="http://www.w3.org/1999/xlink" viewBox="0 0 1446.55 1767.27"><defs><style>.cls-1{fill:none;}.cls-2{clip-path:url(#clip-path);}.cls-3{clip-path:url(#clip-path-3);}.cls-4{fill:url(#linear-gradient);}.cls-5{clip-path:url(#clip-path-4);}.cls-6{fill:url(#linear-gradient-2);}.cls-7{clip-path:url(#clip-path-5);}.cls-8{fill:url(#linear-gradient-3);}.cls-9{clip-path:url(#clip-path-6);}.cls-10{fill:url(#linear-gradient-4);}.cls-11{clip-path:url(#clip-path-7);}.cls-12{fill:url(#linear-gradient-5);}.cls-13{clip-path:url(#clip-path-8);}.cls-14{fill:url(#linear-gradient-6);}.cls-15{clip-path:url(#clip-path-9);}.cls-16{fill:url(#linear-gradient-7);}.cls-17{clip-path:url(#clip-path-10);}.cls-18{fill:url(#linear-gradient-8);}.cls-19{clip-path:url(#clip-path-11);}.cls-20{fill:url(#linear-gradient-9);}.cls-21{clip-path:url(#clip-path-12);}.cls-22{fill:url(#linear-gradient-10);}.cls-23{clip-path:url(#clip-path-13);}.cls-24{fill:url(#linear-gradient-11);}.cls-25{clip-path:url(#clip-path-14);}.cls-26{opacity:0.3;}.cls-27{clip-path:url(#clip-path-15);}.cls-28{fill:#010101;}.cls-29{clip-path:url(#clip-path-16);}.cls-30{fill:url(#linear-gradient-12);}.cls-31{clip-path:url(#clip-path-18);}.cls-32{clip-path:url(#clip-path-19);}.cls-33{fill:url(#linear-gradient-13);}.cls-34{clip-path:url(#clip-path-20);}.cls-35{fill:url(#linear-gradient-14);}.cls-36{clip-path:url(#clip-path-21);}.cls-37{fill:url(#linear-gradient-15);}.cls-38{clip-path:url(#clip-path-22);}.cls-39{fill:url(#linear-gradient-16);}.cls-40{clip-path:url(#clip-path-23);}.cls-41{fill:url(#linear-gradient-17);}.cls-42{clip-path:url(#clip-path-24);}.cls-43{fill:url(#linear-gradient-18);}.cls-44{clip-path:url(#clip-path-25);}.cls-45{fill:url(#linear-gradient-19);}.cls-46,.cls-47{fill:#231f20;}.cls-47{font-size:83px;font-family:Montserrat-SemiBold, Montserrat;font-weight:600;}.cls-48{clip-path:url(#clip-path-26);}.cls-49{fill:url(#linear-gradient-20);}.cls-50{clip-path:url(#clip-path-27);}.cls-51{fill:url(#linear-gradient-21);}</style><clipPath id="clip-path"><rect class="cls-1" x="-535.64" y="-218.55" width="2500" height="2500"/></clipPath><clipPath id="clip-path-3"><path class="cls-1" d="M1194.84,1088.92c-.23,2.67-.37,5.87-.61,9.51s-.48,7.72-.53,12.11c-.47,17.58.45,40.42,6.89,61.7a115.65,115.65,0,0,0,29.05,47.55,96.12,96.12,0,0,0,19.59,15.46s1.34-3.52,3.19-9.6a197.54,197.54,0,0,0,5.64-24.64c3.17-20.09,4-46-4.28-67.86a82.93,82.93,0,0,0-16.13-26.55,87.56,87.56,0,0,0-19.35-16c-12.43-7.66-22.43-10.14-22.43-10.14s-.51,3.14-1,8.46"/></clipPath><linearGradient id="linear-gradient" x1="-535.74" y1="2294.74" x2="-534.74" y2="2294.74" gradientTransform="matrix(66.73, 0, 0, -66.73, 36943.92, 154286.76)" gradientUnits="userSpaceOnUse"><stop offset="0" stop-color="#b37f2c"/><stop offset="0.27" stop-color="#f8de7d"/><stop offset="0.52" stop-color="#e3c164"/><stop offset="1" stop-color="#b37f2c"/></linearGradient><clipPath id="clip-path-4"><path class="cls-1" d="M1136.94,1246.71c-2.24,5.66-5.07,13.79-8.11,23.24-5.8,19-11.79,43.83-11.07,68.36a123.68,123.68,0,0,0,5.85,33.5,131,131,0,0,0,11.14,25.68c8.17,14.25,16.42,22.25,16.42,22.25s2.41-3.4,6.15-9.34c1.81-3,4-6.5,6.33-10.66s4.57-8.88,6.91-14c9.4-20.48,17.69-48.06,15.5-73.77a95.45,95.45,0,0,0-9.16-33.35,102,102,0,0,0-15.55-23.08,105,105,0,0,0-14.4-13.42c-3.87-2.94-6.29-4.42-6.29-4.42s-1.42,3.38-3.72,9"/></clipPath><linearGradient id="linear-gradient-2" x1="-535.74" y1="2294.74" x2="-534.74" y2="2294.74" gradientTransform="matrix(68.72, 0, 0, -68.72, 37932.61, 159018.07)" xlink:href="#linear-gradient"/><clipPath id="clip-path-5"><path class="cls-1" d="M1351.5,1111a118.9,118.9,0,0,0-23.78,11.54,125.28,125.28,0,0,0-25.55,21.12c-16.59,18-29.52,40.74-38.5,59.14-4.65,9.15-8.05,17.34-10.65,23.12s-3.79,9.34-3.79,9.34,10.12,2.4,25,.77,34.69-7.54,53.26-25.14c18.78-17.55,31.58-43.92,39.1-65.87,1.85-5.48,3.41-10.69,4.72-15.37s2.17-9,2.88-12.55c1.46-7.12,2.15-11.45,2.15-11.45s-10.49.28-24.88,5.35"/></clipPath><linearGradient id="linear-gradient-3" x1="-535.69" y1="2294.64" x2="-534.69" y2="2294.64" gradientTransform="matrix(127.15, 0, 0, -127.15, 69360.06, 292925.11)" xlink:href="#linear-gradient"/><clipPath id="clip-path-6"><path class="cls-1" d="M1296.63,1317.78a122.8,122.8,0,0,0-28.73,4.91,133.1,133.1,0,0,0-33.44,14.8c-23.13,14.18-43.32,34.85-58.43,51.83-3.8,4.24-7.22,8.26-10.19,11.9s-5.79,6.92-7.92,9.61c-4.36,5.49-6.75,8.91-6.75,8.91s10,5.55,26.37,8.17a102.5,102.5,0,0,0,29,.32,104.6,104.6,0,0,0,35.31-11.68c25.09-13.37,46.42-37.48,60.79-58.38a255.84,255.84,0,0,0,16.33-27.06c3.75-6.92,5.6-11.32,5.6-11.32a68.52,68.52,0,0,0-7.65-1.37,110.78,110.78,0,0,0-13.67-.82q-3.12,0-6.59.18"/></clipPath><linearGradient id="linear-gradient-4" x1="-535.68" y1="2294.62" x2="-534.68" y2="2294.62" gradientTransform="matrix(173.37, 0, 0, -173.37, 94020.07, 399185.34)" xlink:href="#linear-gradient"/><clipPath id="clip-path-7"><path class="cls-1" d="M1273.25,919.53c-.72,3.08-1.5,6.8-2.35,11-1,4.27-2.07,9.05-3,14.14-4.06,20.82-8.69,47.3-8.47,76.17s5.6,55.87,10.69,76.7c1.23,5.16,2.64,9.91,3.85,14.11s2.25,7.93,3.22,11c1.93,6.08,3.34,9.57,3.34,9.57s2.51-2.75,6.47-7.93c2-2.6,4.36-5.76,6.92-9.52s5.08-8.2,7.87-13.18c10.76-19.6,21.76-48.84,21.36-82.13-.07-4.09-.24-8.2-.54-12.2s-1-8-1.65-11.86-1.39-7.6-2.28-11.3-2.08-7.23-3.22-10.68-2.18-6.82-3.49-10-2.73-6.3-4.18-9.24-2.74-5.77-4.19-8.44-3.06-5.19-4.52-7.56c-3-4.71-5.86-8.92-8.6-12.47s-5.46-6.45-7.61-8.87c-4.35-4.71-7-7.11-7-7.11s-1.11,3.61-2.61,9.82"/></clipPath><linearGradient id="linear-gradient-5" x1="-535.75" y1="2294.75" x2="-534.75" y2="2294.75" gradientTransform="matrix(63.74, 0, 0, -63.74, 35408.14, 147288.86)" xlink:href="#linear-gradient"/><clipPath id="clip-path-8"><path class="cls-1" d="M196.17,1090.6a87.79,87.79,0,0,0-19.35,16,83.11,83.11,0,0,0-16.13,26.55c-8.33,21.81-7.44,47.77-4.27,67.86a194,194,0,0,0,5.64,24.64c1.84,6.08,3.18,9.6,3.18,9.6a96.12,96.12,0,0,0,19.59-15.46,115.65,115.65,0,0,0,29-47.55c6.44-21.28,7.36-44.12,6.89-61.7-.05-4.39-.23-8.46-.53-12.11s-.38-6.84-.61-9.51c-.52-5.32-1-8.46-1-8.46s-10,2.48-22.43,10.14"/></clipPath><linearGradient id="linear-gradient-6" x1="-535.74" y1="2294.74" x2="-534.74" y2="2294.74" gradientTransform="matrix(66.73, 0, 0, -66.73, 35904.47, 154286.76)" xlink:href="#linear-gradient"/><clipPath id="clip-path-9"><path class="cls-1" d="M267.52,1242.15a105,105,0,0,0-14.4,13.42,102,102,0,0,0-15.55,23.08,95.66,95.66,0,0,0-9.16,33.35c-2.19,25.71,6.1,53.29,15.5,73.77,2.34,5.09,4.72,9.78,6.91,14s4.52,7.69,6.33,10.66c3.74,5.94,6.15,9.34,6.15,9.34s8.25-8,16.42-22.25a131,131,0,0,0,11.14-25.68,123.68,123.68,0,0,0,5.85-33.5c.72-24.53-5.26-49.35-11.07-68.36-3-9.45-5.87-17.58-8.11-23.24s-3.72-9-3.72-9-2.42,1.48-6.29,4.42"/></clipPath><linearGradient id="linear-gradient-7" x1="-535.74" y1="2294.74" x2="-534.74" y2="2294.74" gradientTransform="matrix(68.72, 0, 0, -68.72, 37042.97, 159018.07)" xlink:href="#linear-gradient"/><clipPath id="clip-path-10"><path class="cls-1" d="M40.24,1117.09c.71,3.53,1.64,7.84,2.88,12.55s2.87,9.89,4.72,15.37c7.52,22,20.32,48.32,39.1,65.87,18.57,17.6,38.32,23.45,53.26,25.14s25-.77,25-.77-1.26-3.53-3.79-9.34-6-14-10.65-23.12c-9-18.4-21.9-41.11-38.5-59.14a125,125,0,0,0-25.55-21.12A119.1,119.1,0,0,0,63,1111c-14.4-5.07-24.89-5.35-24.89-5.35s.69,4.33,2.15,11.45"/></clipPath><linearGradient id="linear-gradient-8" x1="-535.69" y1="2294.64" x2="-534.69" y2="2294.64" gradientTransform="matrix(127.15, 0, 0, -127.15, 68148.92, 292925.11)" xlink:href="#linear-gradient"/><clipPath id="clip-path-11"><path class="cls-1" d="M97.58,1318.42a68.52,68.52,0,0,0-7.65,1.37s1.85,4.4,5.61,11.32a255.5,255.5,0,0,0,16.32,27.06c14.37,20.9,35.7,45,60.8,58.38a104.49,104.49,0,0,0,35.3,11.68,102.5,102.5,0,0,0,29-.32c16.36-2.62,26.37-8.17,26.37-8.17s-2.39-3.42-6.75-8.91c-2.13-2.69-4.82-5.93-7.92-9.61s-6.39-7.66-10.19-11.9c-15.1-17-35.29-37.65-58.43-51.83a133.1,133.1,0,0,0-33.44-14.8,122.71,122.71,0,0,0-28.73-4.91q-3.47-.18-6.59-.18a110.78,110.78,0,0,0-13.67.82"/></clipPath><linearGradient id="linear-gradient-9" x1="-535.68" y1="2294.62" x2="-534.68" y2="2294.62" gradientTransform="matrix(173.37, 0, 0, -173.37, 92958.83, 399185.34)" xlink:href="#linear-gradient"/><clipPath id="clip-path-12"><path class="cls-1" d="M131.59,916.82c-2.15,2.42-4.74,5.35-7.61,8.87s-5.57,7.76-8.6,12.47c-1.46,2.37-3.1,4.92-4.52,7.56s-2.82,5.49-4.19,8.44-2.82,6-4.18,9.24-2.4,6.53-3.49,10-2.2,7-3.22,10.68-1.59,7.48-2.28,11.3-1.25,7.84-1.65,11.86-.47,8.11-.54,12.2c-.4,33.29,10.6,62.53,21.36,82.13,2.79,5,5.4,9.32,7.87,13.18s4.9,6.92,6.92,9.52c4,5.18,6.47,7.93,6.47,7.93s1.41-3.49,3.34-9.57c1-3,2.09-6.71,3.22-11s2.63-9,3.85-14.11c5.09-20.83,10.4-47.84,10.69-76.7s-4.41-55.35-8.47-76.17c-.92-5.09-2-9.87-3-14.14-.85-4.23-1.63-7.95-2.35-11-1.5-6.21-2.61-9.82-2.61-9.82s-2.67,2.4-7,7.11"/></clipPath><linearGradient id="linear-gradient-10" x1="-535.75" y1="2294.75" x2="-534.75" y2="2294.75" gradientTransform="matrix(63.74, 0, 0, -63.74, 34240, 147288.86)" xlink:href="#linear-gradient"/><clipPath id="clip-path-13"><path class="cls-1" d="M1288.44,1492.27q-37.23,98-74.48,196c-1-.64-66.15-42.17-118.44-46.45v120.29h308l-55.28-135,55.28-134.93Z"/></clipPath><linearGradient id="linear-gradient-11" x1="-535.66" y1="2294.59" x2="-534.66" y2="2294.59" gradientTransform="matrix(307.98, 0, 0, -307.98, 166067.92, 708314.37)" gradientUnits="userSpaceOnUse"><stop offset="0" stop-color="#b37f2c"/><stop offset="0.22" stop-color="#e3c164"/><stop offset="0.33" stop-color="#f8de7d"/><stop offset="0.52" stop-color="#fff2a6"/><stop offset="0.73" stop-color="#f8de7d"/><stop offset="1" stop-color="#b37f2c"/></linearGradient><clipPath id="clip-path-14"><rect class="cls-1" x="-542.76" y="-218.55" width="2500" height="2500"/></clipPath><clipPath id="clip-path-15"><rect class="cls-1" x="1095.52" y="1641.87" width="118.44" height="120.29"/></clipPath><clipPath id="clip-path-16"><path class="cls-1" d="M11,1492.27l55.29,134.94L11,1762.16H319V1641.87c-57.38,16.84-114.76,44.65-118.29,46.38l-.17.08q-37.22-98-74.45-196.06Z"/></clipPath><linearGradient id="linear-gradient-12" x1="-535.66" y1="2294.59" x2="-534.66" y2="2294.59" gradientTransform="matrix(307.99, 0, 0, -307.99, 164988.87, 708337.9)" xlink:href="#linear-gradient-11"/><clipPath id="clip-path-18"><rect class="cls-1" x="200.51" y="1641.87" width="118.46" height="120.29"/></clipPath><clipPath id="clip-path-19"><path class="cls-1" d="M707.23,1320a1436.76,1436.76,0,0,0-339.82,40.83q-34.71,8.46-69.15,18.64a1473.15,1473.15,0,0,0-188.41,70.16q8.1,21.32,16.2,42.67,37.23,98,74.45,196.06l.17-.08c3.53-1.73,60.91-29.54,118.29-46.38a1219.09,1219.09,0,0,1,776.55,0A1252.47,1252.47,0,0,1,1214,1688.33h0q37.26-98,74.48-196,8.1-21.35,16.2-42.67a1471.83,1471.83,0,0,0-184.18-68.9q-34.37-10.28-69-18.83A1436,1436,0,0,0,707.37,1320h-.14"/></clipPath><linearGradient id="linear-gradient-13" x1="-535.64" y1="2294.56" x2="-534.64" y2="2294.56" gradientTransform="matrix(1194.78, 0, 0, -1194.78, 640084.61, 2742994.33)" xlink:href="#linear-gradient-11"/><clipPath id="clip-path-20"><path class="cls-1" d="M539,782.59a5.37,5.37,0,0,0-4.31,2.19l-5.43,7.42-4.84,6.26a5.34,5.34,0,0,0-1.11,3.27v21.32a5.38,5.38,0,0,1-1.38,3.58l-7,7.68a5.34,5.34,0,0,0-1.38,3.59v16.82a5.14,5.14,0,0,0,.19,1.4l3.91,14.4a5.33,5.33,0,0,0,7.1,3.57c16.94-6.69,28.07-2.72,44.19,9.46a29.41,29.41,0,0,0,13.27,5.56,5.35,5.35,0,0,0,6.26-5.26v-21.7a5.35,5.35,0,0,1,3.36-5L602.28,853a5.36,5.36,0,0,1,2-.38h5.35a5.4,5.4,0,0,0,3.11-1l13.5-9.65a5.58,5.58,0,0,0,1.33-1.37L640.12,822l8-10.79A5.29,5.29,0,0,0,649.2,808v-8.92a5.33,5.33,0,0,0-1.85-4l-7.7-6.69a5.34,5.34,0,0,0-8,1.21,5.35,5.35,0,0,1-5.51,2.42l-17.21-3.23a5.44,5.44,0,0,0-1-.09H571.76a5.31,5.31,0,0,1-3.1-1L563,783.59a5.31,5.31,0,0,0-3.1-1Z"/></clipPath><linearGradient id="linear-gradient-14" x1="-535.69" y1="2294.64" x2="-534.69" y2="2294.64" gradientTransform="matrix(135.6, 0, 0, -135.6, 73155.27, 311999.02)" gradientUnits="userSpaceOnUse"><stop offset="0" stop-color="#b37f2c"/><stop offset="1" stop-color="#b3802c"/></linearGradient><clipPath id="clip-path-21"><path class="cls-1" d="M480.1,551.55c-8.29,5.73-15.77,11.26-22.92,18.75-2.5,2.64-4.94,5.29-7.29,8h0c-3.55,4.09-7,8.25-10.35,12.48-10.56,13.27-20.35,27.08-31,40.3-9.6,11.9-23.08,20.06-32.9,31.69a56.77,56.77,0,0,0-6.67,9.57c-9.4,17.27-8.9,39.4-16.77,57.75-.61,1.39-1.15,2.79-1.62,4.16C342.82,756,349,774.72,355,796.69c4.48,16.1,15.55,25.75,26,36.47,6.49,6.63,12.75,13.73,17,23,.5,1,1,2,1.52,3,4.68,9,10.35,14.15,17,17.27,5.71,2.7,12.1,3.89,19.15,4.73a1.79,1.79,0,0,0,1.93-2.32l-3.92-12.3a1.77,1.77,0,0,0-.48-.77L417,850.7l-.19-.27C404,832.58,404,831.5,404,830.36v-19.9a1.82,1.82,0,0,1,.21-.86L413,793.49a1.78,1.78,0,0,1,.25-.36l14.58-15.79c1.05-1.37,4.8-4.84,16.41-7.16,8.82-1.77,16.89-2.88,22.22-3.6,2-.28,3.59-.49,4.56-.66,3.28-.55,24.22-5.18,27.37-5.89l.27-.08,16.12-6.51.77.06c.67,0,6.76.35,8-5.17,1.79-7.89,0-26.7-.06-26.89v-5a1.79,1.79,0,0,0-1.79-1.79H499a1.81,1.81,0,0,1-1.07-.36l-24.22-18a1.35,1.35,0,0,0-.33-.19l-25.25-11.5a1.85,1.85,0,0,1-.56-.4l-13.86-14.58a1.84,1.84,0,0,1-.48-1l-2.34-18.72a1.69,1.69,0,0,0-.29-.77L422.52,637a1.79,1.79,0,0,1,1.49-2.78h12.91a1.82,1.82,0,0,0,1.6-1l7.5-14.94a1.79,1.79,0,0,1,1.6-1h7.6l.24,0,27.77-3.77a1.84,1.84,0,0,0,.81-.32l13.92-10a1.8,1.8,0,0,1,1.05-.34h11.8a1.83,1.83,0,0,1,1,.28l13.72,8.85a1.79,1.79,0,0,0,2-.08l9.27-6.91a1.8,1.8,0,0,0,.72-1.44V592.83a1.73,1.73,0,0,0-.33-1l-7.73-11a2.14,2.14,0,0,1-.26-.55l-5.67-20.36a2,2,0,0,1-.06-.48v-8.9a1.8,1.8,0,0,1,.75-1.45,1.79,1.79,0,0,0-1.06-3.25q-4.89,0-9.79-.23c-5.08-.24-9.21-.59-12.93-.59-7,0-12.61,1.22-20.35,6.6"/></clipPath><linearGradient id="linear-gradient-15" x1="-535.67" y1="2294.61" x2="-534.67" y2="2294.61" gradientTransform="matrix(190.6, 0, 0, -190.6, 102447.83, 438072.89)" xlink:href="#linear-gradient-14"/><clipPath id="clip-path-22"><path class="cls-1" d="M901.87,1027.21l7.15,13.07a2,2,0,0,1,.26,1v12.84a2.05,2.05,0,0,1-.52,1.37l-5,5.73a2.09,2.09,0,0,0-.51,1.37v14.08a2.09,2.09,0,0,1-2.09,2.08H884.62a2.08,2.08,0,0,0-1.16.35l-9.58,6.39-15.58,10.68-.13.1L846.08,1106a1.91,1.91,0,0,1-.41.26l-13.23,6.3a2.1,2.1,0,0,1-1.42.14l-11.27-3a2.33,2.33,0,0,0-.53-.07H808.31a2,2,0,0,0-.42,0l-14.15,2.94a2,2,0,0,1-.42,0h-78a2.12,2.12,0,0,1-.75-.14l-15-5.8a2.17,2.17,0,0,0-.75-.14H663.48a2.09,2.09,0,0,0-2.07,2.37c.18,1.28.4,2.53.66,3.76,2.54,12.12,9.1,22.21,15.41,32.54,2.6,4.27,5.18,8.61,7.4,13.17a63,63,0,0,1,6.66,22.66c1.44,17.12-2.85,31.9,8.83,45.15a2.07,2.07,0,0,0,1.85.67l19.33-2.76a2.38,2.38,0,0,0,.64-.2l8.4-4.22a2.08,2.08,0,0,0,1.15-1.86v-9.77a2,2,0,0,1,.17-.83l8.26-19.17a2.08,2.08,0,0,1,3.72-.21l9.29,16.19a2.09,2.09,0,0,0,1.81,1h4.33a2.08,2.08,0,0,0,1.53-.68l3.11-3.39a2.11,2.11,0,0,0,.54-1.41V1191a2.11,2.11,0,0,1,.8-1.64l9.66-7.62a2.07,2.07,0,0,1,2.67.08l6.55,5.81a2.09,2.09,0,0,0,1.32.53l5.32.17h9.39a2,2,0,0,0,1.08-.3l9.2-5.64a2.7,2.7,0,0,0,.34-.25l7.2-6.77a2.11,2.11,0,0,1,1.43-.56h6.83a2.11,2.11,0,0,0,1.44-.58l5.1-4.87a2.19,2.19,0,0,0,.41-.55l7.19-14a2.09,2.09,0,0,1,1.85-1.13h30.27a2.07,2.07,0,0,1,1.48.62l6.59,6.62c.07.07.13.15.19.22l6.05,8,5.06,7.24a2.12,2.12,0,0,1,.37,1.19v10.57a2.08,2.08,0,0,0,1.05,1.8l3.23,1.85a2,2,0,0,1,.65.59l1.17,1.61a2.1,2.1,0,0,0,3,.37l.81-.7c14.92-12.94,8.36-31.18,10.09-47,.75-7,3.13-13.55,9.74-18.92,26.62-21.61,38.71-34.43,35-69.78-.52-4.77-1.39-9.93-2.43-15.32h-.21l-13.72,3.21a2,2,0,0,1-.48.06H928.83a2.1,2.1,0,0,1-1.07-.3l-6.46-3.87a1.86,1.86,0,0,1-.41-.33l-8.67-8.79-.07-.08-6.89-7.78a2.12,2.12,0,0,0-1.56-.7,2.08,2.08,0,0,0-1.83,3.08"/></clipPath><linearGradient id="linear-gradient-16" x1="-535.66" y1="2294.59" x2="-534.66" y2="2294.59" gradientTransform="matrix(296.3, 0, 0, -296.3, 159378.86, 681017.98)" xlink:href="#linear-gradient-14"/><clipPath id="clip-path-23"><path class="cls-1" d="M809.59,696.57a2.26,2.26,0,0,0-2.26,2.26v16a2.27,2.27,0,0,1-2.27,2.26h-5.18a2.27,2.27,0,0,0-2.27,2.26V757a2.27,2.27,0,0,1-1.44,2.11l-11.31,4.39a2.28,2.28,0,0,0-.62.36l-8.76,7.24a2.4,2.4,0,0,0-.43.47l-11.38,16.72a2.27,2.27,0,0,0-.15,2.29c3.63,7.21,10.06,19.8,11.71,22.28a4.75,4.75,0,0,1,.57,4.16c-1.33,4.21-9,7.85-13.81,9.73a1.77,1.77,0,0,0-.31.15l-10.77,6.4a2.33,2.33,0,0,1-1.15.31H732.11a2.29,2.29,0,0,0-2.21,1.75c-2.74,11.61-5.95,11.57-7.43,11.61-.48,0-1.79.15-3.06.29-5.41.61-14.45,1.62-20.63-.46-4.5-1.51-13.25-.83-18.16-.19a2.22,2.22,0,0,0-1.52.88l-9.71,13a2.2,2.2,0,0,1-.89.71l-3.8,1.69a2.26,2.26,0,0,0-.67,3.68l8.83,8.66,19.06,19.35a2.27,2.27,0,0,1-.41,3.51l-10.94,6.84a2.32,2.32,0,0,1-1.2.34H656.25a2.26,2.26,0,0,0-2.24,2.58l.3,2.21a2.61,2.61,0,0,0,.06.27l2.37,9,5.11,23.22a2.26,2.26,0,0,1-2.21,2.75H649.36a2.31,2.31,0,0,0-1.36.45l-8.19,6.15-.2,0A66.79,66.79,0,0,0,645.39,962a2.23,2.23,0,0,0,2.34.92,2.61,2.61,0,0,1,.48-.05H660.9a2.24,2.24,0,0,0,1.67-.74l7.9-8.71.15-.19L680,940.33a1.3,1.3,0,0,0,.1-.15l6.13-10a2.24,2.24,0,0,1,1.19-1l7.61-2.61a2.27,2.27,0,0,0,1.53-2.14v-4.9a2.3,2.3,0,0,1,.51-1.44l7.19-8.78a2.75,2.75,0,0,0,.31-.52l5.58-12.67A2.26,2.26,0,0,0,710,894l-5.94-9.18a2.27,2.27,0,0,1,.53-3l16.72-12.69a2.27,2.27,0,0,1,2.12-.33l16.48,5.81a2.71,2.71,0,0,1,.3.13l8.37,4.42a2.2,2.2,0,0,0,1.06.27h18.58a2.27,2.27,0,0,0,1.41-.5l12.11-9.65a2.21,2.21,0,0,1,1.41-.5H831.6a2.29,2.29,0,0,1,.78.14l15.42,5.6a2,2,0,0,1,.44.21l14.52,9.2a2.25,2.25,0,0,0,1.21.35h55.89a2.28,2.28,0,0,1,1.69.76l10.37,11.67a2.26,2.26,0,0,1,.42,2.33l-5.05,12.89-3.21,9.08a2.26,2.26,0,0,0,1.15,2.79l11.47,5.52a2.13,2.13,0,0,1,.47.31l12.94,10.81a2.16,2.16,0,0,0,.45.29c1.71.84,7,3.42,13.08,6.34a2.26,2.26,0,0,0,2.5-.39c7.06-6.46,15.18-11.56,23.27-16.72,3.67-2.34,7.34-4.7,10.88-7.19.82-.55,1.59-1.12,2.39-1.69,16.94-12.43,26.1-33,39.48-48.73,8.28-9.73,16.91-21.16,21.65-33.7a56,56,0,0,0,3-10.66,48.09,48.09,0,0,0,.67-11.08c-1.16-20.07-18.76-12.2-33.3-8-15.12,4.34-25.51,6.67-35.91-4.46-.65-.68-1.28-1.43-1.94-2.22-5.32-6.59-9.19-15.49-14.83-22.15-.39-.44-.75-.88-1.16-1.29-6-6.42-13.71-10.2-20.37-15.71-1.2-1-2.36-2.06-3.48-3.18-14.4-14.63-21.31-38.23-29.33-57.67a2.26,2.26,0,0,0-3.57-.84,45.26,45.26,0,0,0-4.16,4.16l-.84,1a2.26,2.26,0,0,1-3.64-.31l-5.15-8.45a2.25,2.25,0,0,0-1.93-1.09Z"/></clipPath><linearGradient id="linear-gradient-17" x1="-535.65" y1="2294.58" x2="-534.65" y2="2294.58" gradientTransform="matrix(427.94, 0, 0, -427.94, 229865.03, 982762.41)" xlink:href="#linear-gradient-14"/><clipPath id="clip-path-24"><path class="cls-1" d="M1033.63,1068c-5.28,7-3.94,18.47-11.86,23.19-6.55,3.9-13.93.75-20.83,3.45-8,3.13-12.09,12.94-11,21.07.57,4.21,5.27,13.15,7.08,15.08,4.29,12.71-10,23.17-10.65,35.3-.2,3.92.93,6.65,1.53,10.58.56,3.75-.18,7.64-.32,11.35-.43,11.36,7.66,20.28,18.88,20.35,11.83.07,18.33-12.46,21.24-22.56,2.82-9.76,4.11-19.46,6.25-29.34,1.82-8.4,8-16.43,11.93-24,3.82-7.31,9.63-13.13,12-21.18,2.59-8.8,2.56-18.81,2.36-27.94-.14-6.63-2.9-14.91-7.68-19.82a9.12,9.12,0,0,0-6.65-3c-4.64,0-9.33,3.5-12.28,7.43"/></clipPath><linearGradient id="linear-gradient-18" x1="-535.73" y1="2294.72" x2="-534.73" y2="2294.72" gradientTransform="matrix(73.97, 0, 0, -73.97, 40612.98, 170868.57)" xlink:href="#linear-gradient-14"/><clipPath id="clip-path-25"><polygon class="cls-1" points="693.67 34.3 693.67 74.56 634.97 74.56 634.97 101.69 693.67 101.69 693.67 209.86 2.64 756.29 707.24 277.28 1411.83 756.29 720.8 209.85 720.8 101.69 779.5 101.69 779.5 74.56 720.8 74.56 720.8 34.3 693.67 34.3"/></clipPath><linearGradient id="linear-gradient-19" x1="-535.64" y1="2294.55" x2="-534.64" y2="2294.55" gradientTransform="matrix(1409.19, 0, 0, -1409.19, 754825.04, 3233866.88)" gradientUnits="userSpaceOnUse"><stop offset="0" stop-color="#f8de7d"/><stop offset="0.5" stop-color="#bf9036"/><stop offset="0.81" stop-color="#e5c465"/><stop offset="1" stop-color="#f8de7d"/></linearGradient><clipPath id="clip-path-26"><path class="cls-1" d="M564.45,541c7-1.68,13.74-4.57,20.28-7.35,8.34-3.56,16.21-6.92,24.57-8.06,16.34-2.27,36.57-.27,40.14,22.08a39.86,39.86,0,0,1-.06,8.58c-.49,6.61-1,14.09,4.47,19,5.2,4.57,13.4,5.15,22.09,5.78,7.07.5,14.37,1,19.43,3.89a70.07,70.07,0,0,1,8,5.77c1.74,1.37,3.53,2.78,5.38,4.11l.49.34c4.35,3.14,10,6.58,15.88,6.58,8.8,0,15.85-6.62,22.66-13,4.32-4,8.39-7.83,12.63-9.77,15.39-7.05,28.46.41,42.3,8.3,5.81,3.32,11.83,6.75,18,9,8.69,3.19,21.36,7.48,31,7.85,4.79.2,9.2-1,13.48-2.07a49.94,49.94,0,0,1,9.86-1.89c7.31-.42,14.06,1.44,19,5.23,5.31,4.09,8.35,10.23,8.78,17.76a64.58,64.58,0,0,1-1.06,14.24c-1.19,7.65-2.31,14.87,2.31,24.93a128.08,128.08,0,0,0,7.27,13.3c.74,1.22,1.5,2.44,2.26,3.66a143.32,143.32,0,0,1,9.54,17.08c2.36,5.31,4.53,11,6.84,17,6.5,16.94,13.23,34.47,25.07,46.53,1.11,1.11,2.29,2.19,3.63,3.32,2.67,2.22,5.52,4.17,8.27,6.05,4.33,3,8.42,5.76,12,9.57.27.27.51.55.75.84l.29.33a87.9,87.9,0,0,1,7.68,11.42,94.37,94.37,0,0,0,7.14,10.77c.62.76,1.3,1.57,2,2.32,10.92,11.72,21.61,9.72,37.93,5,1.58-.46,3.19-.95,4.81-1.45,8.51-2.62,17.31-5.33,22-2.08,2.38,1.65,3.67,4.85,4,9.77a46.8,46.8,0,0,1-.63,10.65,54.76,54.76,0,0,1-2.89,10.33c-4.87,12.9-14,24.51-21.31,33.19a210.89,210.89,0,0,0-13.51,18.5c-7.41,11-15.07,22.26-25.63,30l-.54.4c-.59.43-1.17.85-1.82,1.29-3.59,2.54-7.31,4.92-10.81,7.15l-.94.6c-12.84,8.21-26.11,16.7-34.79,31-11.47,19-7.75,44.13-2.55,70.42l.81,4.05c1.75,8.72,3.41,16.95,4.18,24.27,3.58,33.78-7.11,46.12-34.23,68.19-6.21,5.06-9.54,11.52-10.46,20.3a97.5,97.5,0,0,0-.17,13.89c.41,11.91.8,23.16-9.24,31.9-2.6,2.25-5.11,4.24-7.54,6.16a109.9,109.9,0,0,0-11.25,9.76,58.8,58.8,0,0,0-8.12,10.44,133.16,133.16,0,0,0-8.7,18.13c-.73,1.74-1.46,3.48-2.2,5.2a92.51,92.51,0,0,1-7,13.59,55.6,55.6,0,0,1-5.31,6.92,74,74,0,0,1-16.8,14c-11.35,7-24.29,11.35-36.44,12.12-5.38.34-11.1,1.65-17.16,3-13.65,3.12-27.76,6.34-38-1.87-5.52-4.44-8.41-11.07-11.2-17.48l-.66-1.5c-.31-.71-.65-1.75-1.09-3.07-2.38-7.22-7.32-22.24-26-40.89-9.7-9.67-9.65-20.24-9.59-32.48,0-4.27,0-8.69-.35-13.33a64.75,64.75,0,0,0-6.86-23.44c-2.31-4.75-5-9.2-7.49-13.35l-1.34-2.19c-5.92-9.7-11.52-18.86-13.82-29.82a50.78,50.78,0,0,1-.1-20.45c1.86-9.85,5.34-19.33,8.71-28.49,4.5-12.25,8.75-23.83,9.41-36.1a55.22,55.22,0,0,0-7.63-31.31c-4.36-7.59-10-14.12-15.43-20.45-7.49-8.7-14.56-16.93-18.77-27.79-2.09-5.38-3-12.1-4-19.23-1.88-13.43-3.83-27.32-13.77-35.26-6.88-5.48-14.95-6.05-22.95-6.05l-3.14,0c-8.92.08-18.16.17-26.12-5.87-18.3-13.87-31.16-18.26-54.74-5.73-20.25,10.8-34.36,8.77-53.89,6l-5-.7c-4.47-.62-8.7-1-12.79-1.44-10.17-1-19-1.86-26.41-5.4-6.8-3.22-11.9-8.44-16.07-16.46-.53-1-1-2-1.45-2.9-4.43-9.66-11-17.08-17.41-23.65-1.2-1.24-2.42-2.47-3.63-3.69-9.28-9.38-18.05-18.23-21.87-32-.37-1.36-.75-2.7-1.12-4-5.61-20.1-10.46-37.46-3.41-57.37.43-1.25,1-2.61,1.57-4,3.67-8.58,5.57-18,7.4-27.11,2.22-11,4.33-21.46,9.3-30.61a54.37,54.37,0,0,1,6.43-9.26c4.64-5.5,10.27-10.36,15.72-15,6-5.13,12.13-10.45,17.21-16.76,5.6-7,11.05-14.23,16.32-21.24,4.76-6.33,9.67-12.87,14.67-19.17,3.59-4.5,6.69-8.26,9.71-11.75l.63-.69c2.16-2.49,4.52-5.1,7.22-8,6.69-7,13.61-12.29,22.62-18.54,10-6.94,15.8-6.6,27.41-5.92l4.63.25q4.69.24,9.34.24A178.48,178.48,0,0,0,564.45,541m44.31-19.37c-8.89,1.21-17.38,4.84-25.6,8.34-6.39,2.72-13,5.54-19.65,7.14a175.71,175.71,0,0,1-50,4.57l-4.6-.25c-11.74-.69-18.83-1.1-29.92,6.62-9.21,6.39-16.31,11.81-23.24,19.07-2.5,2.65-4.71,5.07-6.75,7.4l-.62.69c-3.25,3.73-6.56,7.72-10.42,12.57-5,6.35-10,12.91-14.73,19.26-5.26,7-10.68,14.21-16.25,21.14-4.84,6-10.87,11.21-16.7,16.23-5.57,4.8-11.32,9.75-16.16,15.5a57.84,57.84,0,0,0-6.9,9.93c-5.26,9.68-7.52,20.89-9.7,31.73-1.8,8.91-3.65,18.13-7.16,26.32-.65,1.52-1.22,3-1.66,4.3-7.47,21.08-2.47,39,3.33,59.75.37,1.34.74,2.68,1.12,4,4.09,14.78,13.64,24.42,22.88,33.75,1.2,1.21,2.41,2.43,3.61,3.67,6.17,6.32,12.46,13.42,16.65,22.54.44.95,1,2.06,1.54,3.1,4.57,8.8,10.26,14.58,17.89,18.2,8.08,3.83,17.18,4.73,27.73,5.76,4.05.4,8.25.81,12.63,1.42l4.95.7c19.51,2.81,34.93,5,56.34-6.39,21.8-11.58,33.18-7.7,50.44,5.38,9.05,6.88,19,6.78,28.58,6.69,8.69-.08,16.89-.15,23.55,5.16,8.7,6.94,10.53,20,12.31,32.69,1,7.36,2,14.31,4.27,20.12,4.46,11.5,12.09,20.37,19.47,29,5.32,6.18,10.82,12.57,15,19.84a51.39,51.39,0,0,1,7.11,29.1c-.63,11.67-4.78,23-9.17,34.93-3.43,9.32-7,19-8.9,29.12a55.14,55.14,0,0,0,.12,22c2.44,11.63,8.49,21.52,14.33,31.07l1.33,2.18c2.47,4.07,5.07,8.43,7.31,13a60.62,60.62,0,0,1,6.47,22c.38,4.45.36,8.78.34,13-.06,12.59-.12,24.48,10.77,35.33,18,18,22.7,32.39,25,39.31.47,1.42.84,2.54,1.22,3.43l.66,1.49c2.85,6.53,6.08,13.94,12.37,19,5.66,4.55,12.25,6.06,19.11,6.06,7.38,0,15.08-1.75,22.28-3.4,5.9-1.34,11.47-2.62,16.52-2.93,12.8-.82,26.4-5.34,38.3-12.72a78.05,78.05,0,0,0,17.69-14.8,60.38,60.38,0,0,0,5.66-7.39,96.87,96.87,0,0,0,7.35-14.17q1.13-2.62,2.22-5.26a129.45,129.45,0,0,1,8.42-17.58,55.3,55.3,0,0,1,7.57-9.74,107,107,0,0,1,10.87-9.41c2.46-2,5-4,7.68-6.28,11.49-10,11-22.73,10.62-35.06a91.86,91.86,0,0,1,.15-13.32c.82-7.78,3.59-13.22,9-17.63,27.71-22.54,39.46-36.13,35.69-71.71-.8-7.5-2.47-15.83-4.24-24.64l-.81-4c-5-25.49-8.68-49.84,2.06-67.57,8.19-13.52,20.49-21.39,33.52-29.72l.93-.6c3.54-2.25,7.3-4.66,10.93-7.23.65-.44,1.28-.89,1.91-1.35l.54-.4c11.12-8.17,19-19.78,26.58-31a211.49,211.49,0,0,1,13.25-18.15c7.57-8.93,16.92-20.9,22-34.36a59.4,59.4,0,0,0,3.09-11.06h0a50.21,50.21,0,0,0,.68-11.56c-.35-6.23-2.2-10.43-5.66-12.83-6.27-4.36-16-1.36-25.44,1.55-1.59.49-3.18,1-4.73,1.42-15.24,4.38-24.34,6.35-33.92-3.94-.65-.68-1.27-1.42-1.83-2.1a89.7,89.7,0,0,1-6.81-10.3,91.61,91.61,0,0,0-8.08-12l-.28-.33c-.31-.36-.62-.71-.91-1-3.79-4.09-8.26-7.14-12.58-10.1-2.68-1.83-5.45-3.73-8-5.82-1.23-1-2.33-2-3.34-3.06-11.26-11.46-17.83-28.59-24.19-45.16-2.32-6-4.51-11.76-6.91-17.17A146,146,0,0,0,917,677.16c-.75-1.21-1.5-2.42-2.24-3.64a125.17,125.17,0,0,1-7-12.87c-4.11-9-3.13-15.32-2-22.66a66.94,66.94,0,0,0,1.1-15.08c-.5-8.73-4.07-15.88-10.33-20.7-5.69-4.38-13.39-6.53-21.66-6.05a53.81,53.81,0,0,0-10.64,2c-4.18,1.09-8.12,2.12-12.31,1.94-9-.35-21.3-4.5-29.74-7.6-5.89-2.16-11.76-5.5-17.43-8.74-14.1-8-28.68-16.37-46-8.46-4.82,2.2-9.33,6.41-13.68,10.48-6.26,5.83-12.72,11.87-20,11.9-4.94,0-10.06-3.29-14-6.15l-.56-.39h0c-1.6-1.18-3.19-2.42-4.73-3.63a72.61,72.61,0,0,0-8.53-6.12c-5.84-3.3-13.61-3.86-21.12-4.4-8-.57-15.54-1.1-19.72-4.78s-3.6-9.44-3.13-15.67a42.61,42.61,0,0,0,0-9.51c-2.73-17.09-14.77-26.17-34.29-26.17a74.88,74.88,0,0,0-10.34.76"/></clipPath><linearGradient id="linear-gradient-20" x1="-535.65" y1="2294.56" x2="-534.65" y2="2294.56" gradientTransform="matrix(724.64, 0, 0, -724.64, 388495.59, 1663642.3)" xlink:href="#linear-gradient-14"/><clipPath id="clip-path-27"><path class="cls-1" d="M994.37,1201.11a17.94,17.94,0,0,1-4.77-13.26c0-1.11.14-2.23.24-3.42a35,35,0,0,0,.06-8.32c-.21-1.4-.48-2.62-.74-3.79a22.85,22.85,0,0,1-.77-6.43c.23-4.68,2.77-9.21,5.46-14,3.86-6.86,7.84-14,5.09-22.13l-.14-.41-.3-.32c-1.54-1.65-6-10.29-6.55-14-.94-6.92,2.52-16.15,9.74-19,2.78-1.09,5.73-1.11,8.84-1.14,4.05,0,8.23-.05,12.28-2.47,5.32-3.17,6.93-8.77,8.48-14.18,1-3.58,2-7,4-9.58,2.85-3.81,6.85-6.41,10.19-6.63l.49,0a7,7,0,0,1,5.21,2.38c4,4.16,7,11.77,7.12,18.51.2,9.25.19,19-2.28,27.41-1.39,4.73-4,8.66-6.86,12.82a82.18,82.18,0,0,0-5,8c-1.15,2.19-2.47,4.41-3.87,6.76-3.39,5.68-6.89,11.54-8.24,17.79-.76,3.5-1.42,7-2,10.42-1.16,6.19-2.36,12.6-4.17,18.86s-7.37,21.17-19.22,21.17h-.08a16.73,16.73,0,0,1-12.13-5.07M1045.18,1058c-5.41.35-10.34,4.48-13.13,8.22-2.41,3.22-3.53,7.11-4.61,10.88-1.4,4.87-2.72,9.48-6.68,11.85-3.11,1.85-6.58,1.88-10.25,1.9-3.35,0-6.81,0-10.29,1.42-9.14,3.6-13.4,14.65-12.24,23.25.61,4.46,5.13,13.15,7.28,15.84,2,6.36-1.38,12.28-4.9,18.54-2.79,5-5.69,10.13-6,15.76a26.51,26.51,0,0,0,.87,7.47c.24,1.11.49,2.27.68,3.53a32.09,32.09,0,0,1-.08,7.38c-.1,1.19-.21,2.42-.26,3.62a22,22,0,0,0,5.88,16.18,20.71,20.71,0,0,0,15,6.3h.12c14.55,0,21-16.82,23.06-24.06,1.85-6.45,3.07-12.95,4.25-19.24.63-3.37,1.28-6.86,2-10.3,1.21-5.61,4.54-11.19,7.76-16.59,1.37-2.29,2.79-4.67,4-7a78.63,78.63,0,0,1,4.77-7.66c2.86-4.23,5.81-8.61,7.37-13.94,2.64-9,2.65-19.06,2.45-28.62-.15-6.48-2.75-15.55-8.26-21.21a11.05,11.05,0,0,0-8.09-3.58c-.24,0-.48,0-.73,0"/></clipPath><linearGradient id="linear-gradient-21" x1="-535.73" y1="2294.71" x2="-534.73" y2="2294.71" gradientTransform="matrix(77.97, 0, 0, -77.97, 42753.18, 180044.81)" xlink:href="#linear-gradient-14"/></defs><title>logo1</title><g class="cls-2"><g class="cls-2"><g class="cls-3"><rect class="cls-4" x="1193.23" y="1080.46" width="68.87" height="154.79"/></g><g class="cls-5"><rect class="cls-6" x="1117.04" y="1237.73" width="71.2" height="182.01"/></g><g class="cls-7"><rect class="cls-8" x="1249.23" y="1105.64" width="127.15" height="132.01"/></g><g class="cls-9"><rect class="cls-10" x="1151.17" y="1317.6" width="173.37" height="112.09"/></g><g class="cls-11"><rect class="cls-12" x="1259.22" y="909.71" width="64.34" height="222.49"/></g><g class="cls-13"><rect class="cls-14" x="152.36" y="1080.46" width="68.87" height="154.79"/></g><g class="cls-15"><rect class="cls-16" x="226.22" y="1237.73" width="71.2" height="182.01"/></g><g class="cls-17"><rect class="cls-18" x="38.09" y="1105.64" width="127.14" height="132.01"/></g><g class="cls-19"><rect class="cls-20" x="89.93" y="1317.6" width="173.37" height="112.09"/></g><g class="cls-21"><rect class="cls-22" x="90.91" y="909.71" width="64.34" height="222.49"/></g><g class="cls-23"><rect class="cls-24" x="1095.52" y="1492.27" width="307.98" height="269.9"/></g><g class="cls-25"><g class="cls-26"><g class="cls-27"><path class="cls-28" d="M1214,1688.32h0l-118.44,73.83V1641.87c52.29,4.28,117.42,45.81,118.44,46.45"/></g></g></g><g class="cls-29"><rect class="cls-30" x="10.98" y="1492.27" width="307.99" height="269.9"/></g><g class="cls-25"><g class="cls-26"><g class="cls-31"><path class="cls-28" d="M319,1641.87v120.29l-118.46-73.83.17-.08c3.53-1.73,60.91-29.54,118.29-46.38"/></g></g></g><g class="cls-32"><rect class="cls-33" x="109.85" y="1319.97" width="1194.78" height="368.36"/></g><g class="cls-34"><rect class="cls-35" x="513.59" y="782.59" width="135.61" height="107.08"/></g><g class="cls-36"><rect class="cls-37" x="342.82" y="544.95" width="194.71" height="336.4"/></g><g class="cls-38"><rect class="cls-39" x="661.24" y="1024.13" width="299.54" height="202.95"/></g><g class="cls-40"><rect class="cls-41" x="639.61" y="696.57" width="428.08" height="266.59"/></g><g class="cls-42"><rect class="cls-43" x="986.18" y="1060.6" width="74.29" height="147.87"/></g><g class="cls-44"><rect class="cls-45" x="2.64" y="34.3" width="1409.19" height="722"/></g><path class="cls-46" d="M279.44,1535.32l-22.56,8.13-.73,11.2-9.61,3.46,4.22-52,9.76-3.52L296.83,1540l-9.76,3.52Zm-5.9-6.34-14.73-15.69-1.35,21.48Z"/><polygon class="cls-46" points="301.49 1498.05 305.26 1510.61 326.96 1504.09 329.37 1512.12 307.68 1518.63 312.71 1535.41 302.7 1538.41 289.04 1492.95 323.45 1482.61 325.89 1490.72 301.49 1498.05"/><path class="cls-46" d="M375.72,1518.26l-12.52-10.73-.8.2-9.74,2.44,3.26,13-10.15,2.54-11.51-46.06,19.89-5c12.32-3.08,21.66,1.09,24.27,11.55a15.44,15.44,0,0,1-6,17l14.27,12.26Zm-20.25-35.15-9,2.26,4.2,16.83,9-2.26c7-1.75,9.87-5.71,8.52-11.11S362.48,1481.36,355.47,1483.11Z"/><rect class="cls-46" x="391.6" y="1465.47" width="10.46" height="47.47" transform="translate(-303.81 116.51) rotate(-12.12)"/><path class="cls-46" d="M412.51,1485.74c-2.54-13.88,6.53-26.09,21.23-28.78,8.41-1.54,15.23-.26,20.72,4.39l-5.53,7.6a15.92,15.92,0,0,0-13.26-3.31c-9.07,1.66-14.43,9.22-12.79,18.2s9.36,14.24,18.42,12.58a15.81,15.81,0,0,0,11.22-7.88l7.88,5.23c-3.59,6.22-9.49,9.92-17.82,11.44C427.88,1507.91,415.07,1499.7,412.51,1485.74Z"/><path class="cls-46" d="M498.54,1485.09l-23.74,3.44-3,10.82-10.11,1.46,14.57-50.07,10.27-1.49,28.07,43.92-10.27,1.48Zm-4.5-7.4-11.29-18.33-5.64,20.78Z"/><text class="cls-47" transform="translate(513.86 1493.52) rotate(-6.71)"> </text><polygon class="cls-46" points="539.16 1442.67 549.58 1441.73 551.29 1460.75 574.03 1458.7 572.31 1439.68 582.73 1438.75 586.99 1486.04 576.57 1486.97 574.8 1467.3 552.07 1469.35 553.84 1489.02 543.42 1489.96 539.16 1442.67"/><path class="cls-46" d="M595.74,1461.54c-.73-14.09,9.83-25,24.84-25.81s26.73,9,27.47,23.08-9.83,25.11-24.91,25.9S596.48,1475.63,595.74,1461.54Zm41.7-2.18c-.48-9-7.37-15.24-16.4-14.77a15.14,15.14,0,0,0-14.77,16.4c.48,9.12,7.45,15.32,16.4,14.85S637.91,1468.48,637.44,1459.36Z"/><path class="cls-46" d="M700,1451.18c.19,10.79-7.74,17.33-20.44,17.55l-10,.18.23,13.2-10.46.19-.84-47.48,20.5-.36C691.61,1434.23,699.77,1440.4,700,1451.18Zm-10.54.19c-.1-5.56-3.89-8.56-11.11-8.43l-9.29.16.31,17.35,9.29-.17C685.84,1460.15,689.52,1456.93,689.42,1451.37Z"/><polygon class="cls-46" points="747.96 1473.7 747.85 1482.08 711 1481.62 711.6 1434.15 747.53 1434.6 747.42 1443.06 721.95 1442.74 721.81 1453.62 744.47 1453.9 744.37 1462.03 721.71 1461.75 721.56 1473.37 747.96 1473.7"/><text class="cls-47" transform="translate(751.06 1482.28) rotate(1.95)"> </text><polygon class="cls-46" points="824.57 1485.88 826.32 1456.72 810.33 1479.67 805.61 1479.37 792.56 1455.35 790.77 1483.76 780.83 1483.14 783.81 1435.75 792.76 1436.31 808.87 1467.1 828.46 1438.56 837.41 1439.12 834.51 1486.51 824.57 1485.88"/><rect class="cls-46" x="832.13" y="1459.53" width="47.48" height="10.46" transform="translate(-681.9 2181.22) rotate(-84.68)"/><polygon class="cls-46" points="922 1448.28 916.28 1495.41 907.71 1494.37 886.84 1461.74 883.24 1491.4 872.86 1490.14 878.57 1443.01 887.23 1444.06 908.09 1476.78 911.7 1447.03 922 1448.28"/><rect class="cls-46" x="915.14" y="1469.63" width="47.47" height="10.46" transform="translate(-659.88 2182.44) rotate(-81.39)"/><path class="cls-46" d="M950.56,1495.94l5.26-7.32c3.4,3.64,9,6.58,15,7.64,6.86,1.22,9.74-.71,10.24-3.57,1.66-9.32-27.27-7.3-24.12-25,1.54-8.66,10.26-13.1,22.43-10.93,5.8,1,11.79,3.36,15.63,6.91l-4.94,7.38a24.34,24.34,0,0,0-12.51-5.93c-6.54-1.17-9.66.72-10.21,3.83-1.63,9.15,27.17,7.45,24.1,24.69-1.57,8.82-10,13.3-22.62,11.06C961.46,1503.36,954.16,1499.87,950.56,1495.94Z"/><polygon class="cls-46" points="1013.93 1472.88 998.67 1469.63 1000.45 1461.27 1041.2 1469.95 1039.42 1478.31 1024.16 1475.06 1016.04 1513.13 1005.82 1510.95 1013.93 1472.88"/><path class="cls-46" d="M1068,1525.66l-5.9-15.39-.81-.21-9.73-2.49-3.34,13-10.13-2.6,11.8-46,19.86,5.1c12.3,3.15,18.53,11.27,15.85,21.72a15.44,15.44,0,0,1-13.38,12.07l6.71,17.58Zm-1.08-40.55-9-2.31-4.31,16.81,9,2.31c7,1.79,11.4-.34,12.78-5.72S1073.9,1486.91,1066.9,1485.11Z"/><rect class="cls-46" x="1076.68" y="1504.99" width="47.48" height="10.46" transform="translate(-660.4 2135.69) rotate(-73.48)"/><polygon class="cls-46" points="1149.57 1542.35 1146.88 1550.29 1111.98 1538.45 1127.23 1493.5 1161.27 1505.04 1158.55 1513.06 1134.42 1504.87 1130.92 1515.17 1152.38 1522.45 1149.77 1530.15 1128.31 1522.87 1124.58 1533.88 1149.57 1542.35"/><path class="cls-46" d="M1153.54,1547.86l6.66-6.09c2.58,4.27,7.48,8.3,13.1,10.57,6.47,2.6,9.68,1.3,10.76-1.39,3.54-8.78-25.19-12.76-18.46-29.46,3.29-8.16,12.73-10.71,24.2-6.08,5.47,2.2,10.85,5.71,13.88,10l-6.35,6.21a24.35,24.35,0,0,0-11-8.39c-6.16-2.48-9.6-1.27-10.78,1.65-3.48,8.62,25.06,12.88,18.51,29.12-3.35,8.32-12.56,11-24.42,6.18C1162.68,1557.36,1156.25,1552.44,1153.54,1547.86Z"/><g class="cls-48"><rect class="cls-49" x="341.21" y="520.87" width="728.48" height="777.76"/></g><g class="cls-50"><rect class="cls-51" x="984.25" y="1058.02" width="78.21" height="152.16"/></g></g></g></svg>