<svg id="Layer_1" data-name="Layer 1" xmlns="http://www.w3.org/2000/svg" xmlns:xlink="http://www.w3.org/1999/xlink" viewBox="0 0 1446.55 1767.27"><defs><style>.cls-1{fill:none;}.cls-2{clip-path:url(#clip-path);}.cls-3{clip-path:url(#clip-path-2);}.cls-4{fill:#fff;}.cls-5{clip-path:url(#clip-path-3);}.cls-6{fill:url(#linear-gradient);}.cls-7{fill:#6d6e71;}.cls-8{clip-path:url(#clip-path-5);}.cls-9{fill:url(#linear-gradient-2);}.cls-10,.cls-11{fill:#231f20;}.cls-11{font-size:83px;font-family:Montserrat-SemiBold, Montserrat;font-weight:600;}</style><clipPath id="clip-path"><rect class="cls-1" x="-529.09" y="-222.18" width="2500" height="2500"/></clipPath><clipPath id="clip-path-2"><rect class="cls-1" x="-525.36" y="-222.18" width="2500" height="2500"/></clipPath><clipPath id="clip-path-3"><path class="cls-1" d="M1305.84,1488.63q-37.23,98-74.48,196.06c-1-.65-66.15-42.17-118.44-46.45v120.29h308l-55.28-135,55.28-134.94Z"/></clipPath><linearGradient id="linear-gradient" x1="3144.05" y1="2938.14" x2="3145.05" y2="2938.14" gradientTransform="matrix(307.98, 0, 0, -307.98, -967190.54, 906510.98)" gradientUnits="userSpaceOnUse"><stop offset="0" stop-color="#58595b"/><stop offset="0.07" stop-color="#68696b"/><stop offset="0.4" stop-color="#a8a9aa"/><stop offset="0.67" stop-color="#d7d7d8"/><stop offset="0.88" stop-color="#f4f4f4"/><stop offset="1" stop-color="#fff"/></linearGradient><clipPath id="clip-path-5"><path class="cls-1" d="M28.38,1488.63l55.29,134.95-55.29,135h308V1638.24c-57.38,16.84-114.76,44.65-118.29,46.38l-.17.08q-37.22-98-74.45-196.07Z"/></clipPath><linearGradient id="linear-gradient-2" x1="3144.05" y1="2938.14" x2="3145.05" y2="2938.14" gradientTransform="matrix(307.99, 0, 0, -307.99, -968307.44, 906541.09)" gradientUnits="userSpaceOnUse"><stop offset="0" stop-color="#fff"/><stop offset="0.12" stop-color="#f4f4f4"/><stop offset="0.33" stop-color="#d7d7d8"/><stop offset="0.6" stop-color="#a8a9aa"/><stop offset="0.93" stop-color="#68696b"/><stop offset="1" stop-color="#58595b"/></linearGradient></defs><title>logo</title><g class="cls-2"><g class="cls-3"><path class="cls-4" d="M1271.18,1129.51c8.33,21.81,7.45,47.77,4.28,67.87a197.54,197.54,0,0,1-5.64,24.64c-1.85,6.07-3.19,9.59-3.19,9.59a96,96,0,0,1-19.59-15.46,115.64,115.64,0,0,1-29-47.55c-6.45-21.28-7.36-44.12-6.9-61.7.06-4.39.24-8.45.54-12.11s.37-6.84.6-9.5c.52-5.33,1-8.47,1-8.47s10,2.48,22.43,10.14a87.56,87.56,0,0,1,19.35,16,82.86,82.86,0,0,1,16.13,26.55"/><path class="cls-4" d="M1203.47,1308.37c2.18,25.7-6.1,53.29-15.5,73.77-2.34,5.09-4.73,9.78-6.92,14s-4.51,7.69-6.33,10.65c-3.73,6-6.14,9.34-6.14,9.34s-8.26-8-16.42-22.25a129.92,129.92,0,0,1-11.15-25.68,124.06,124.06,0,0,1-5.85-33.49c-.71-24.54,5.27-49.36,11.08-68.36,3-9.45,5.86-17.58,8.1-23.25s3.72-9,3.72-9,2.42,1.47,6.3,4.41a105.53,105.53,0,0,1,14.4,13.42A102.51,102.51,0,0,1,1194.3,1275a95.78,95.78,0,0,1,9.17,33.36"/><path class="cls-4" d="M1319.57,1140c-16.59,18-29.52,40.74-38.5,59.15-4.64,9.15-8,17.33-10.65,23.11s-3.79,9.34-3.79,9.34,10.12,2.4,25,.77,34.69-7.53,53.27-25.14c18.77-17.55,31.57-43.91,39.09-65.87,1.85-5.48,3.41-10.69,4.72-15.36s2.18-9,2.88-12.56c1.46-7.12,2.15-11.44,2.15-11.44s-10.49.27-24.88,5.34a120,120,0,0,0-23.78,11.54,125.88,125.88,0,0,0-25.55,21.12"/><path class="cls-4" d="M1251.87,1333.86c-23.14,14.17-43.33,34.84-58.43,51.82-3.8,4.24-7.23,8.26-10.2,11.91s-5.79,6.91-7.92,9.6c-4.35,5.49-6.74,8.91-6.74,8.91s10,5.56,26.36,8.17a102.56,102.56,0,0,0,29,.32,104.12,104.12,0,0,0,35.3-11.68c25.1-13.37,46.43-37.48,60.79-58.38a253.83,253.83,0,0,0,16.33-27.06c3.75-6.91,5.6-11.32,5.6-11.32a67.41,67.41,0,0,0-7.65-1.36,114.73,114.73,0,0,0-20.26-.65,122.8,122.8,0,0,0-28.73,4.91,132.94,132.94,0,0,0-33.43,14.81"/><path class="cls-4" d="M1276.85,1017.24c.28,28.85,5.6,55.87,10.68,76.69,1.23,5.16,2.65,9.92,3.85,14.12s2.25,7.92,3.22,10.94c1.93,6.08,3.35,9.58,3.35,9.58s2.5-2.75,6.46-7.94c2-2.6,4.36-5.76,6.92-9.52s5.08-8.2,7.87-13.17c10.77-19.61,21.76-48.84,21.37-82.14-.07-4.08-.24-8.2-.55-12.2s-1-8-1.64-11.86-1.39-7.6-2.28-11.29-2.09-7.24-3.22-10.68-2.19-6.82-3.49-10-2.74-6.29-4.18-9.24-2.75-5.76-4.19-8.44-3.07-5.18-4.52-7.56c-3-4.71-5.87-8.91-8.61-12.46s-5.45-6.46-7.61-8.87c-4.35-4.72-7-7.11-7-7.11s-1.11,3.61-2.61,9.81c-.71,3.09-1.5,6.81-2.34,11-1,4.26-2.08,9.05-3,14.14-4,20.82-8.69,47.3-8.46,76.17"/><path class="cls-4" d="M178.09,1129.51c-8.32,21.81-7.44,47.77-4.27,67.87a195.75,195.75,0,0,0,5.64,24.64c1.85,6.07,3.18,9.59,3.18,9.59a95.68,95.68,0,0,0,19.59-15.46,115.54,115.54,0,0,0,29.05-47.55c6.45-21.28,7.36-44.12,6.9-61.7-.06-4.39-.24-8.45-.54-12.11s-.38-6.84-.6-9.5c-.53-5.33-1-8.47-1-8.47s-10,2.48-22.43,10.14a87.56,87.56,0,0,0-19.35,16,83.06,83.06,0,0,0-16.14,26.55"/><path class="cls-4" d="M245.81,1308.37c-2.18,25.7,6.1,53.29,15.5,73.77,2.34,5.09,4.73,9.78,6.92,14s4.51,7.69,6.33,10.65c3.73,6,6.14,9.34,6.14,9.34s8.26-8,16.42-22.25a129.92,129.92,0,0,0,11.15-25.68,124.06,124.06,0,0,0,5.85-33.49c.71-24.54-5.27-49.36-11.08-68.36-3-9.45-5.87-17.58-8.11-23.25s-3.71-9-3.71-9-2.42,1.47-6.3,4.41a105.53,105.53,0,0,0-14.4,13.42A102.86,102.86,0,0,0,255,1275a96,96,0,0,0-9.16,33.36"/><path class="cls-4" d="M129.71,1140c16.59,18,29.52,40.74,38.49,59.15,4.65,9.15,8.05,17.33,10.65,23.11s3.79,9.34,3.79,9.34-10.11,2.4-25,.77-34.7-7.53-53.27-25.14c-18.78-17.55-31.57-43.91-39.09-65.87-1.86-5.48-3.41-10.69-4.72-15.36s-2.18-9-2.89-12.56c-1.45-7.12-2.14-11.44-2.14-11.44s10.49.27,24.88,5.34a120,120,0,0,1,23.78,11.54A125.88,125.88,0,0,1,129.71,1140"/><path class="cls-4" d="M197.41,1333.86c23.14,14.17,43.33,34.84,58.43,51.82,3.8,4.24,7.23,8.26,10.2,11.91s5.79,6.91,7.91,9.6c4.36,5.49,6.75,8.91,6.75,8.91s-10,5.56-26.36,8.17a102.57,102.57,0,0,1-29,.32,104,104,0,0,1-35.3-11.68c-25.1-13.37-46.43-37.48-60.79-58.38a252.16,252.16,0,0,1-16.33-27.06c-3.75-6.91-5.61-11.32-5.61-11.32a68,68,0,0,1,7.66-1.36,114.73,114.73,0,0,1,20.26-.65,122.88,122.88,0,0,1,28.73,4.91,132.94,132.94,0,0,1,33.43,14.81"/><path class="cls-4" d="M172.43,1017.24c-.29,28.85-5.6,55.87-10.69,76.69-1.22,5.16-2.64,9.92-3.85,14.12s-2.24,7.92-3.21,10.94c-1.94,6.08-3.35,9.58-3.35,9.58s-2.51-2.75-6.46-7.94c-2-2.6-4.36-5.76-6.92-9.52s-5.09-8.2-7.88-13.17c-10.76-19.61-21.76-48.84-21.36-82.14.07-4.08.24-8.2.55-12.2s1-8,1.64-11.86,1.39-7.6,2.28-11.29,2.08-7.24,3.22-10.68,2.19-6.82,3.49-10,2.74-6.29,4.18-9.24,2.75-5.76,4.19-8.44,3.06-5.18,4.52-7.56c3-4.71,5.87-8.91,8.61-12.46s5.45-6.46,7.6-8.87c4.35-4.72,7-7.11,7-7.11s1.11,3.61,2.62,9.81c.71,3.09,1.49,6.81,2.34,11,1,4.26,2.07,9.05,3,14.14,4.06,20.82,8.7,47.3,8.47,76.17"/></g><g class="cls-5"><rect class="cls-6" x="1112.92" y="1488.63" width="307.98" height="269.9"/></g><g class="cls-3"><path class="cls-7" d="M1231.36,1684.69h0l-118.44,73.83V1638.24c52.29,4.28,117.42,45.8,118.44,46.45"/></g><g class="cls-8"><rect class="cls-9" x="28.38" y="1488.63" width="307.99" height="269.9"/></g><g class="cls-3"><path class="cls-7" d="M336.37,1638.24v120.29L217.91,1684.7l.17-.08c3.53-1.73,60.91-29.54,118.29-46.38"/><path class="cls-4" d="M1322,1446l-16.2,42.67q-37.23,98-74.48,196.06h0a1252.47,1252.47,0,0,0-118.44-46.45,1218.91,1218.91,0,0,0-776.55,0c-57.38,16.84-114.76,44.65-118.29,46.38l-.17.08q-37.22-98-74.45-196.07L127.26,1446a1474.6,1474.6,0,0,1,188.41-70.15q34.43-10.2,69.15-18.64a1434.59,1434.59,0,0,1,684,1.07q34.67,8.54,69,18.83A1473.34,1473.34,0,0,1,1322,1446"/><path class="cls-4" d="M619.68,849.4l-10.41,4.16a5.33,5.33,0,0,0-3.36,5v21.69a5.36,5.36,0,0,1-6.26,5.27,29.59,29.59,0,0,1-13.26-5.56c-16.13-12.19-27.26-16.16-44.19-9.46a5.34,5.34,0,0,1-7.11-3.57l-3.91-14.41a5.54,5.54,0,0,1-.18-1.4V834.26a5.37,5.37,0,0,1,1.38-3.59l7-7.67a5.34,5.34,0,0,0,1.38-3.59V798.09a5.33,5.33,0,0,1,1.12-3.27l4.84-6.25,5.42-7.42a5.34,5.34,0,0,1,4.32-2.19h20.84a5.33,5.33,0,0,1,3.11,1l5.7,4.08a5.4,5.4,0,0,0,3.11,1h36.15a5.33,5.33,0,0,1,1,.09l17.21,3.23a5.34,5.34,0,0,0,5.52-2.42,5.34,5.34,0,0,1,8-1.2l7.7,6.68a5.33,5.33,0,0,1,1.84,4v8.92a5.32,5.32,0,0,1-1.06,3.19l-8,10.78L645,837a5.21,5.21,0,0,1-1.32,1.37L630.12,848a5.31,5.31,0,0,1-3.1,1h-5.36a5.4,5.4,0,0,0-2,.38"/><path class="cls-4" d="M451.11,862.94l3.92,12.3a1.81,1.81,0,0,1-1.93,2.33c-7.06-.84-13.44-2-19.16-4.73-6.6-3.13-12.27-8.28-17-17.28-.52-1-1-2-1.52-3-4.27-9.3-10.52-16.4-17-23-10.46-10.72-21.53-20.37-26-36.47-6.09-22-12.23-40.66-4.5-62.43.47-1.36,1-2.76,1.63-4.16,7.86-18.34,7.36-40.48,16.77-57.75a56.72,56.72,0,0,1,6.66-9.57c9.82-11.62,23.31-19.79,32.91-31.68,10.63-13.22,20.42-27,31-40.31,3.37-4.23,6.8-8.39,10.36-12.48h0c2.36-2.71,4.79-5.37,7.29-8,7.15-7.48,14.64-13,22.92-18.75,11.84-8.23,18.62-6.71,33.28-6,3.27.16,6.53.25,9.8.24a1.79,1.79,0,0,1,1,3.24,1.8,1.8,0,0,0-.75,1.46v8.89a1.59,1.59,0,0,0,.07.48l5.67,20.36a1.64,1.64,0,0,0,.26.55l7.73,11a1.79,1.79,0,0,1,.32,1v10.66a1.78,1.78,0,0,1-.72,1.44l-9.27,6.92a1.79,1.79,0,0,1-2,.07l-13.71-8.84a1.79,1.79,0,0,0-1-.29h-11.8a1.77,1.77,0,0,0-1,.34l-13.93,10a1.71,1.71,0,0,1-.8.33l-27.78,3.76-.24,0H465a1.78,1.78,0,0,0-1.6,1l-7.5,14.93a1.78,1.78,0,0,1-1.6,1H441.41a1.79,1.79,0,0,0-1.49,2.78L448,645.46a1.75,1.75,0,0,1,.28.77l2.34,18.71a1.86,1.86,0,0,0,.48,1L465,680.53a1.81,1.81,0,0,0,.55.4l25.26,11.5a2.07,2.07,0,0,1,.32.19l24.23,18a1.85,1.85,0,0,0,1.07.35h22.68a1.79,1.79,0,0,1,1.79,1.79v5c0,.19,1.85,19,.07,26.9-1.25,5.52-7.35,5.22-8,5.16l-.77-.06-16.11,6.51a2.29,2.29,0,0,1-.28.09c-3.15.7-24.08,5.33-27.36,5.88-1,.17-2.55.38-4.56.66-5.34.73-13.41,1.84-22.23,3.6-11.61,2.33-15.35,5.8-16.41,7.16l-14.57,15.79a1.83,1.83,0,0,0-.26.36L421.64,806a1.86,1.86,0,0,0-.22.86v19.9c0,1.15,0,2.22,12.74,20.08l.19.26,16.27,15.11a1.85,1.85,0,0,1,.49.77"/><path class="cls-4" d="M939.47,1124.18c-6.61,5.37-9,11.89-9.73,18.91-1.73,15.8,4.82,34-10.09,47l-.82.7a2.07,2.07,0,0,1-3-.37l-1.18-1.61a1.91,1.91,0,0,0-.65-.58l-3.23-1.85a2.09,2.09,0,0,1-1-1.81V1174a2.06,2.06,0,0,0-.38-1.2l-5.06-7.23-6-8a2,2,0,0,0-.19-.22l-6.59-6.63A2.1,2.1,0,0,0,890,1150H859.69a2.11,2.11,0,0,0-1.86,1.13l-7.19,14a1.84,1.84,0,0,1-.41.55l-5.1,4.87a2.09,2.09,0,0,1-1.44.58h-6.83a2,2,0,0,0-1.42.57l-7.21,6.76a2.18,2.18,0,0,1-.34.26l-9.19,5.63a2.12,2.12,0,0,1-1.09.31h-9.38l-5.33-.18a2.11,2.11,0,0,1-1.31-.52l-6.56-5.82a2.08,2.08,0,0,0-2.67-.08l-9.66,7.63a2.08,2.08,0,0,0-.79,1.63v8.78a2.07,2.07,0,0,1-.55,1.4l-3.1,3.39a2.08,2.08,0,0,1-1.54.68h-4.33a2.08,2.08,0,0,1-1.8-1l-9.3-16.19a2.08,2.08,0,0,0-3.72.21l-8.26,19.18a2.11,2.11,0,0,0-.17.82v9.77a2.09,2.09,0,0,1-1.15,1.87l-8.4,4.21a2.07,2.07,0,0,1-.64.2l-19.33,2.76a2,2,0,0,1-1.85-.67c-11.68-13.25-7.38-28-8.83-45.14a62.85,62.85,0,0,0-6.66-22.67c-2.22-4.56-4.79-8.89-7.4-13.16-6.31-10.34-12.86-20.43-15.4-32.55-.27-1.23-.49-2.48-.66-3.76a2.08,2.08,0,0,1,2.07-2.36h35.32a1.92,1.92,0,0,1,.75.14l15,5.79a2.17,2.17,0,0,0,.75.14h78a2,2,0,0,0,.43,0l14.14-3a2,2,0,0,1,.42,0h10.91a1.88,1.88,0,0,1,.53.07l11.27,3a2.08,2.08,0,0,0,1.43-.14l13.22-6.3a2.26,2.26,0,0,0,.42-.26l12.08-9.77.13-.09,15.58-10.69,9.59-6.38a2,2,0,0,1,1.15-.35h16.52a2.09,2.09,0,0,0,2.08-2.09V1059a2.06,2.06,0,0,1,.52-1.38l5-5.73a2.08,2.08,0,0,0,.51-1.37v-12.84a2.06,2.06,0,0,0-.25-1l-7.16-13.06a2.09,2.09,0,0,1,1.83-3.09,2.07,2.07,0,0,1,1.56.71l6.89,7.77.08.08,8.66,8.8a2.59,2.59,0,0,0,.42.32l6.45,3.87a2,2,0,0,0,1.07.3H957.6a1.84,1.84,0,0,0,.47-.06l13.72-3.21H972c1,5.39,1.91,10.55,2.42,15.32,3.76,35.35-8.34,48.18-35,69.79"/><path class="cls-4" d="M1084.21,824.28a57.08,57.08,0,0,1-3,10.67c-4.74,12.53-13.38,24-21.66,33.69-13.37,15.74-22.53,36.3-39.48,48.73-.8.58-1.57,1.14-2.39,1.7-3.53,2.48-7.21,4.84-10.88,7.18-8.09,5.16-16.21,10.26-23.27,16.72a2.24,2.24,0,0,1-2.5.39c-6.13-2.92-11.37-5.49-13.07-6.33a1.77,1.77,0,0,1-.45-.3l-12.95-10.81a2.09,2.09,0,0,0-.47-.3l-11.46-5.52a2.28,2.28,0,0,1-1.16-2.8l3.21-9.08,5-12.89a2.26,2.26,0,0,0-.42-2.33L939,881.34a2.23,2.23,0,0,0-1.69-.76H881.38a2.25,2.25,0,0,1-1.21-.35L865.64,871a2.58,2.58,0,0,0-.44-.22l-15.42-5.6a2.28,2.28,0,0,0-.77-.14H800.56a2.27,2.27,0,0,0-1.41.5L787,875.23a2.26,2.26,0,0,1-1.41.49H767.05a2.31,2.31,0,0,1-1.06-.26L757.63,871a1.73,1.73,0,0,0-.31-.14l-16.48-5.8a2.24,2.24,0,0,0-2.12.33L722,878.11a2.25,2.25,0,0,0-.53,3l5.93,9.19a2.23,2.23,0,0,1,.17,2.14L722,905.13a2.14,2.14,0,0,1-.32.52l-7.19,8.79a2.25,2.25,0,0,0-.51,1.43v4.9a2.25,2.25,0,0,1-1.52,2.14l-7.61,2.62a2.28,2.28,0,0,0-1.2,1l-6.12,10-.11.15L688,949.63a.9.9,0,0,1-.15.19L680,958.53a2.25,2.25,0,0,1-1.68.75H665.62a2,2,0,0,0-.49.05,2.26,2.26,0,0,1-2.34-.93A67.17,67.17,0,0,1,657,948.25l.2-.06,8.2-6.14a2.23,2.23,0,0,1,1.36-.46h10.28a2.26,2.26,0,0,0,2.21-2.74l-5.11-23.22-2.38-9a2.56,2.56,0,0,1,0-.27l-.31-2.21a2.26,2.26,0,0,1,2.24-2.57h23.12a2.21,2.21,0,0,0,1.2-.35l10.94-6.84a2.25,2.25,0,0,0,.41-3.5L690.26,871.5l-8.82-8.65a2.27,2.27,0,0,1,.66-3.69l3.8-1.68a2.29,2.29,0,0,0,.89-.71l9.71-13a2.27,2.27,0,0,1,1.52-.89c4.91-.64,13.66-1.32,18.16.19,6.18,2.09,15.23,1.07,20.63.46,1.27-.14,2.58-.29,3.06-.29,1.48,0,4.69,0,7.44-11.6a2.27,2.27,0,0,1,2.2-1.75h17.65a2.25,2.25,0,0,0,1.16-.32l10.77-6.39.31-.16c4.76-1.87,12.47-5.51,13.8-9.72a4.79,4.79,0,0,0-.56-4.17c-1.66-2.47-8.08-15.06-11.72-22.28a2.24,2.24,0,0,1,.16-2.29l11.38-16.72a2.38,2.38,0,0,1,.43-.47l8.75-7.24a2.45,2.45,0,0,1,.63-.36l11.3-4.39a2.28,2.28,0,0,0,1.45-2.11V715.68a2.27,2.27,0,0,1,2.26-2.27h5.19a2.26,2.26,0,0,0,2.26-2.26V695.2a2.26,2.26,0,0,1,2.26-2.26h98.27a2.26,2.26,0,0,1,1.93,1.08l5.15,8.46a2.26,2.26,0,0,0,3.64.3l.85-1a44.07,44.07,0,0,1,4.16-4.17,2.26,2.26,0,0,1,3.56.84c8,19.44,14.93,43,29.33,57.67,1.13,1.12,2.28,2.17,3.48,3.18,6.67,5.51,14.4,9.29,20.38,15.71.4.41.76.85,1.15,1.29,5.65,6.66,9.51,15.57,14.83,22.15.66.79,1.29,1.54,1.94,2.23,10.4,11.12,20.79,8.79,35.92,4.46,14.53-4.17,32.14-12,33.29,8a48,48,0,0,1-.66,11.07"/><path class="cls-4" d="M1014.43,1127.18c4.3,12.72-10,23.18-10.65,35.3-.19,3.92.94,6.65,1.53,10.58.56,3.75-.18,7.64-.32,11.35-.43,11.36,7.66,20.28,18.88,20.35,11.84.07,18.33-12.46,21.25-22.56,2.82-9.76,4.1-19.46,6.25-29.33,1.82-8.41,8-16.44,11.92-24,3.82-7.31,9.63-13.12,12-21.17,2.58-8.81,2.56-18.81,2.36-28-.15-6.63-2.9-14.91-7.69-19.81-6.18-6.35-14.52-1.43-18.92,4.45-5.29,7.06-4,18.48-11.87,23.19-6.55,3.9-13.92.75-20.82,3.46-8,3.12-12.1,12.93-11,21.06.57,4.21,5.27,13.15,7.07,15.08"/><polygon class="cls-4" points="1429.24 752.66 724.64 273.64 20.04 752.66 711.07 206.22 711.07 98.05 652.37 98.05 652.37 70.92 711.07 70.92 711.07 30.66 738.21 30.66 738.21 70.92 796.9 70.92 796.9 98.05 738.21 98.05 738.21 206.21 1429.24 752.66"/></g><path class="cls-10" d="M296.85,1531.69l-22.57,8.12-.73,11.21-9.61,3.46,4.22-52,9.76-3.51,36.32,37.38-9.77,3.52Zm-5.9-6.35-14.74-15.69-1.35,21.49Z"/><polygon class="cls-10" points="318.89 1494.41 322.67 1506.97 344.37 1500.45 346.78 1508.48 325.08 1515 330.12 1531.77 320.1 1534.78 306.44 1489.31 340.86 1478.97 343.3 1487.08 318.89 1494.41"/><path class="cls-10" d="M393.13,1514.62l-12.52-10.73-.81.21-9.74,2.43,3.26,13-10.15,2.53-11.51-46.06,19.89-5c12.32-3.08,21.66,1.09,24.28,11.56a15.47,15.47,0,0,1-6,17l14.27,12.26Zm-20.25-35.14-9,2.25,4.21,16.83,9-2.25c7-1.76,9.87-5.72,8.52-11.12S379.88,1477.73,372.88,1479.48Z"/><rect class="cls-10" x="409.01" y="1461.83" width="10.46" height="47.47" transform="translate(-302.66 120.08) rotate(-12.12)"/><path class="cls-10" d="M429.92,1482.11c-2.55-13.88,6.53-26.09,21.22-28.79,8.41-1.54,15.23-.25,20.72,4.39l-5.53,7.6a16,16,0,0,0-13.26-3.31c-9.06,1.66-14.43,9.22-12.78,18.21s9.35,14.23,18.42,12.57a15.78,15.78,0,0,0,11.21-7.87l7.88,5.22c-3.59,6.23-9.49,9.92-17.82,11.45C445.28,1504.27,432.47,1496.07,429.92,1482.11Z"/><path class="cls-10" d="M516,1481.46l-23.74,3.43-3,10.83-10.1,1.46,14.57-50.08,10.27-1.48L532,1489.53,521.77,1491Zm-4.51-7.4-11.29-18.33-5.63,20.77Z"/><text class="cls-11" transform="translate(531.29 1489.9) rotate(-6.71)"> </text><polygon class="cls-10" points="556.57 1439.03 566.98 1438.1 568.7 1457.11 591.43 1455.06 589.72 1436.05 600.13 1435.11 604.39 1482.4 593.98 1483.34 592.2 1463.66 569.47 1465.71 571.24 1485.38 560.83 1486.32 556.57 1439.03"/><path class="cls-10" d="M613.15,1457.91c-.74-14.1,9.83-25,24.83-25.82s26.73,9,27.47,23.08-9.83,25.12-24.91,25.9S613.88,1472,613.15,1457.91Zm41.69-2.18c-.47-9-7.36-15.24-16.4-14.77a15.13,15.13,0,0,0-14.77,16.39c.48,9.12,7.45,15.32,16.41,14.86S655.32,1464.84,654.84,1455.73Z"/><path class="cls-10" d="M717.36,1447.55c.2,10.79-7.74,17.32-20.44,17.55l-10,.18.24,13.19-10.46.19-.85-47.47,20.5-.37C709,1430.6,717.17,1436.76,717.36,1447.55Zm-10.54.19c-.1-5.56-3.88-8.57-11.11-8.44l-9.29.17.31,17.34,9.29-.16C703.24,1456.52,706.92,1453.3,706.82,1447.74Z"/><polygon class="cls-10" points="765.36 1470.06 765.25 1478.44 728.4 1477.98 729 1430.51 764.93 1430.96 764.83 1439.42 739.35 1439.11 739.21 1449.98 761.87 1450.26 761.77 1458.39 739.11 1458.11 738.97 1469.73 765.36 1470.06"/><text class="cls-11" transform="translate(768.47 1478.68) rotate(1.95)"> </text><polygon class="cls-10" points="841.98 1482.25 843.73 1453.08 827.73 1476.03 823.01 1475.73 809.96 1451.71 808.18 1480.12 798.24 1479.5 801.21 1432.12 810.16 1432.68 826.27 1463.46 845.87 1434.92 854.81 1435.48 851.92 1482.87 841.98 1482.25"/><rect class="cls-10" x="849.53" y="1455.9" width="47.48" height="10.46" transform="translate(-662.49 2195.25) rotate(-84.68)"/><polygon class="cls-10" points="939.4 1444.64 933.68 1491.78 925.12 1490.74 904.24 1458.1 900.64 1487.77 890.26 1486.51 895.98 1439.38 904.63 1440.43 925.49 1473.14 929.1 1443.39 939.4 1444.64"/><rect class="cls-10" x="932.54" y="1466" width="47.47" height="10.46" transform="translate(-641.49 2196.55) rotate(-81.39)"/><path class="cls-10" d="M968,1492.31l5.27-7.33c3.4,3.64,9,6.58,15,7.65,6.87,1.22,9.74-.72,10.25-3.58,1.66-9.31-27.28-7.3-24.13-25,1.55-8.66,10.26-13.09,22.43-10.93,5.81,1,11.8,3.37,15.63,6.92l-4.93,7.38a24.31,24.31,0,0,0-12.52-5.94c-6.54-1.16-9.66.73-10.21,3.83-1.63,9.15,27.17,7.45,24.1,24.69-1.57,8.83-10,13.31-22.62,11.07C978.87,1499.73,971.56,1496.24,968,1492.31Z"/><polygon class="cls-10" points="1031.33 1469.24 1016.07 1465.99 1017.86 1457.63 1058.61 1466.32 1056.82 1474.68 1041.56 1471.42 1033.45 1509.49 1023.22 1507.32 1031.33 1469.24"/><path class="cls-10" d="M1085.38,1522l-5.9-15.4-.8-.2-9.73-2.5-3.34,13-10.13-2.6,11.8-46,19.85,5.09c12.31,3.16,18.54,11.27,15.85,21.72a15.45,15.45,0,0,1-13.38,12.08l6.72,17.57Zm-1.07-40.55-9-2.31L1071,1496l9,2.31c7,1.79,11.4-.33,12.78-5.72S1091.3,1483.27,1084.31,1481.48Z"/><rect class="cls-10" x="1094.08" y="1501.36" width="47.48" height="10.46" transform="translate(-644.46 2149.77) rotate(-73.48)"/><polygon class="cls-10" points="1166.98 1538.71 1164.29 1546.65 1129.39 1534.82 1144.63 1489.86 1178.67 1501.4 1175.95 1509.42 1151.82 1501.24 1148.33 1511.53 1169.79 1518.81 1167.17 1526.51 1145.71 1519.23 1141.98 1530.24 1166.98 1538.71"/><path class="cls-10" d="M1170.94,1544.22l6.66-6.08c2.58,4.26,7.48,8.3,13.1,10.56,6.47,2.61,9.68,1.31,10.77-1.39,3.53-8.77-25.2-12.75-18.46-29.46,3.28-8.16,12.72-10.7,24.19-6.08,5.47,2.2,10.86,5.72,13.88,10l-6.35,6.21a24.37,24.37,0,0,0-11-8.39c-6.16-2.48-9.6-1.27-10.78,1.66-3.47,8.62,25.06,12.87,18.51,29.12-3.35,8.31-12.56,11-24.42,6.17C1180.09,1553.73,1173.66,1548.81,1170.94,1544.22Z"/><g class="cls-3"><path class="cls-4" d="M776.41,1295c-6.86,0-13.45-1.52-19.11-6.06-6.29-5.06-9.52-12.46-12.37-19l-.65-1.5c-.39-.89-.76-2-1.22-3.43-2.29-6.92-7-21.33-25-39.31-10.89-10.85-10.83-22.74-10.77-35.32,0-4.19,0-8.52-.33-13a60.87,60.87,0,0,0-6.47-22c-2.24-4.6-4.84-9-7.32-13l-1.33-2.18c-5.84-9.56-11.88-19.44-14.32-31.08a54.73,54.73,0,0,1-.12-22c1.93-10.17,5.47-19.81,8.89-29.13,4.39-12,8.54-23.26,9.17-34.93a51.35,51.35,0,0,0-7.11-29.1c-4.17-7.26-9.67-13.65-15-19.84-7.38-8.58-15-17.45-19.48-29-2.25-5.81-3.23-12.76-4.26-20.12-1.78-12.65-3.62-25.74-12.31-32.69-6.66-5.31-14.87-5.24-23.56-5.15-9.6.09-19.53.18-28.58-6.69-17.26-13.08-28.64-17-50.44-5.38-21.4,11.41-36.82,9.19-56.34,6.39l-4.94-.71c-4.39-.61-8.58-1-12.64-1.42-10.54-1-19.65-1.92-27.73-5.76-7.63-3.62-13.31-9.4-17.89-18.2-.56-1-1.09-2.15-1.54-3.09-4.19-9.13-10.48-16.23-16.65-22.55-1.2-1.23-2.41-2.45-3.61-3.67-9.23-9.32-18.78-19-22.88-33.75-.37-1.35-.75-2.7-1.12-4-5.79-20.76-10.8-38.68-3.33-59.75.45-1.33,1-2.79,1.66-4.3,3.51-8.2,5.37-17.41,7.16-26.32,2.19-10.84,4.45-22.05,9.7-31.73a58.47,58.47,0,0,1,6.9-9.94c4.84-5.74,10.6-10.7,16.16-15.5,5.83-5,11.86-10.21,16.71-16.23,5.56-6.93,11-14.15,16.24-21.14,4.77-6.35,9.7-12.91,14.73-19.25,3.87-4.85,7.18-8.85,10.42-12.58l.63-.69c2-2.32,4.25-4.75,6.75-7.39,6.92-7.26,14-12.68,23.23-19.07,11.1-7.73,18.18-7.31,29.93-6.63l4.6.25a175.67,175.67,0,0,0,50-4.56c6.66-1.61,13.27-4.43,19.66-7.15,8.21-3.5,16.7-7.12,25.59-8.34,25.6-3.55,41.45,5.48,44.63,25.42a42.52,42.52,0,0,1,0,9.5c-.46,6.23-.9,12.11,3.13,15.67,4.18,3.68,11.73,4.22,19.73,4.79,7.51.54,15.27,1.09,21.11,4.4a72.5,72.5,0,0,1,8.54,6.11c1.54,1.21,3.12,2.46,4.73,3.63h0l.55.39c3.92,2.87,9.05,6.16,14,6.16,7.23,0,13.7-6.07,20-11.91,4.36-4.07,8.86-8.27,13.69-10.48,17.26-7.9,31.84.42,45.94,8.46,5.68,3.24,11.54,6.59,17.43,8.74,8.44,3.1,20.71,7.26,29.74,7.61,4.19.17,8.14-.86,12.31-1.94a54.55,54.55,0,0,1,10.64-2c8.27-.48,16,1.68,21.66,6.06,6.26,4.81,9.84,12,10.34,20.7a68.09,68.09,0,0,1-1.1,15.07C922,641.7,921,648,925.13,657a123.43,123.43,0,0,0,7,12.88l2.25,3.63a147.53,147.53,0,0,1,9.8,17.56c2.4,5.41,4.59,11.13,6.92,17.18,6.35,16.56,12.93,33.69,24.18,45.15,1,1,2.11,2,3.35,3.06,2.52,2.09,5.29,4,8,5.83,4.32,3,8.78,6,12.57,10.09.29.29.6.65.91,1l.29.33a90.77,90.77,0,0,1,8.07,12,90.74,90.74,0,0,0,6.81,10.31c.56.68,1.19,1.42,1.83,2.1,9.59,10.29,18.68,8.31,33.92,3.94,1.55-.45,3.14-.94,4.74-1.43,9.42-2.9,19.17-5.9,25.44-1.54,3.45,2.4,5.3,6.59,5.66,12.83a50.29,50.29,0,0,1-.69,11.56,58.2,58.2,0,0,1-3.09,11.07c-5.08,13.46-14.43,25.43-22,34.35A210.1,210.1,0,0,0,1047.85,887c-7.6,11.22-15.45,22.83-26.57,31l-.55.4c-.63.46-1.25.92-1.91,1.36-3.63,2.56-7.39,5-10.92,7.22l-.94.6c-13,8.33-25.33,16.2-33.52,29.73-10.74,17.73-7.1,42.08-2.05,67.56l.81,4c1.77,8.82,3.44,17.14,4.23,24.64,3.77,35.58-8,49.17-35.68,71.72-5.41,4.41-8.19,9.84-9,17.62a95,95,0,0,0-.15,13.33c.43,12.32.87,25.06-10.61,35-2.68,2.32-5.22,4.33-7.69,6.28a108.12,108.12,0,0,0-10.86,9.41,55.42,55.42,0,0,0-7.58,9.75,129.39,129.39,0,0,0-8.41,17.58c-.74,1.75-1.48,3.51-2.23,5.25a96.84,96.84,0,0,1-7.34,14.18,61.44,61.44,0,0,1-5.67,7.38,78,78,0,0,1-17.68,14.8c-11.91,7.39-25.51,11.91-38.3,12.72-5.06.32-10.63,1.59-16.53,2.94-7.2,1.64-14.9,3.4-22.28,3.4M616.87,883.15c8,0,16.08.56,23,6,9.94,7.94,11.89,21.83,13.78,35.27,1,7.12,1.94,13.84,4,19.23,4.21,10.86,11.29,19.08,18.78,27.79,5.44,6.32,11.06,12.86,15.42,20.45a55.31,55.31,0,0,1,7.64,31.31c-.67,12.27-4.92,23.84-9.42,36.09-3.36,9.17-6.84,18.64-8.71,28.49a50.78,50.78,0,0,0,.1,20.45c2.3,11,7.9,20.13,13.83,29.82l1.33,2.19c2.52,4.15,5.18,8.6,7.49,13.36a64.45,64.45,0,0,1,6.86,23.43c.39,4.64.37,9.06.35,13.34-.06,12.23-.11,22.8,9.6,32.47,18.63,18.66,23.58,33.67,26,40.89.44,1.32.78,2.37,1.09,3.07l.66,1.51c2.79,6.4,5.69,13,11.21,17.47,10.24,8.22,24.35,5,38,1.88,6.06-1.39,11.79-2.69,17.17-3,12.14-.78,25.08-5.08,36.44-12.13a73.89,73.89,0,0,0,16.79-14,56.28,56.28,0,0,0,5.31-6.91,92.12,92.12,0,0,0,7-13.6c.75-1.72,1.48-3.46,2.21-5.2a133.66,133.66,0,0,1,8.69-18.13,59.53,59.53,0,0,1,8.12-10.44,110.88,110.88,0,0,1,11.25-9.75c2.43-1.92,4.94-3.91,7.54-6.17,10-8.74,9.66-20,9.24-31.89a99.13,99.13,0,0,1,.17-13.9c.93-8.78,4.25-15.23,10.46-20.29,27.13-22.07,37.82-34.42,34.23-68.2-.77-7.31-2.42-15.55-4.18-24.27l-.81-4c-5.2-26.29-8.92-51.46,2.56-70.41,8.67-14.33,22-22.82,34.79-31l.94-.6c3.5-2.23,7.21-4.61,10.8-7.15.66-.44,1.24-.86,1.82-1.29l.55-.4c10.55-7.75,18.21-19.07,25.62-30a215.07,215.07,0,0,1,13.51-18.5c7.36-8.68,16.44-20.29,21.31-33.19a54.35,54.35,0,0,0,2.89-10.33,46.2,46.2,0,0,0,.64-10.64c-.29-4.93-1.58-8.13-4-9.78-4.67-3.25-13.47-.54-22,2.08-1.62.5-3.23,1-4.8,1.45-16.32,4.68-27,6.68-37.93-5-.72-.75-1.4-1.56-2-2.31a95.39,95.39,0,0,1-7.14-10.78,88.25,88.25,0,0,0-7.68-11.42l-.29-.33c-.24-.28-.48-.57-.75-.84-3.54-3.8-7.62-6.6-12-9.56-2.76-1.89-5.61-3.84-8.28-6.06-1.33-1.12-2.51-2.2-3.62-3.31-11.85-12.07-18.58-29.59-25.08-46.54-2.3-6-4.48-11.67-6.84-17A144.11,144.11,0,0,0,931,675.63c-.76-1.22-1.51-2.44-2.26-3.66a127.06,127.06,0,0,1-7.27-13.3c-4.62-10-3.49-17.28-2.31-24.93a63.25,63.25,0,0,0,1.06-14.23c-.43-7.54-3.46-13.68-8.77-17.76-4.94-3.8-11.68-5.65-19-5.24a50.85,50.85,0,0,0-9.86,1.9c-4.27,1.11-8.69,2.26-13.48,2.06-9.59-.37-22.26-4.65-31-7.84-6.2-2.27-12.21-5.71-18-9-13.83-7.9-26.91-15.35-42.3-8.3-4.24,1.93-8.31,5.74-12.62,9.76-6.82,6.37-13.87,12.95-22.67,13-5.89,0-11.53-3.45-15.88-6.59l-.49-.33c-1.85-1.34-3.64-2.75-5.37-4.11a71.19,71.19,0,0,0-8-5.78c-5-2.86-12.36-3.39-19.43-3.89-8.68-.62-16.89-1.21-22.09-5.78-5.52-4.88-5-12.36-4.47-19a38.61,38.61,0,0,0,.06-8.58c-3.57-22.35-23.8-24.34-40.13-22.07-8.36,1.14-16.24,4.5-24.58,8-6.53,2.79-13.3,5.67-20.28,7.36A180,180,0,0,1,530.7,542c-1.64-.08-3.18-.17-4.64-.26-11.61-.67-17.44-1-27.4,5.92-9,6.25-15.94,11.53-22.62,18.54-2.7,2.86-5.07,5.46-7.23,8l-.63.69c-3,3.5-6.12,7.25-9.71,11.76-5,6.29-9.91,12.84-14.66,19.16-5.27,7-10.72,14.27-16.33,21.25-5.07,6.31-11.24,11.62-17.21,16.76-5.44,4.69-11.08,9.54-15.72,15.05a54.31,54.31,0,0,0-6.43,9.25c-5,9.16-7.07,19.58-9.3,30.62-1.83,9.11-3.73,18.52-7.4,27.1-.61,1.43-1.14,2.78-1.56,4-7.05,19.9-2.21,37.26,3.4,57.36.38,1.34.75,2.69,1.13,4,3.81,13.77,12.58,22.62,21.86,32q1.83,1.83,3.64,3.69c6.42,6.57,13,14,17.41,23.65.41.88.91,1.92,1.45,2.91,4.16,8,9.27,13.23,16.07,16.46,7.45,3.53,16.23,4.4,26.4,5.39,4.09.41,8.33.82,12.8,1.44l5,.71c19.53,2.8,33.64,4.83,53.89-6,23.59-12.53,36.44-8.14,54.74,5.72,8,6.05,17.2,6,26.13,5.88l3.13,0"/><path class="cls-4" d="M1024,1206.54h-.12a20.63,20.63,0,0,1-15-6.3,21.86,21.86,0,0,1-5.88-16.17c0-1.21.15-2.44.25-3.62a31.09,31.09,0,0,0,.08-7.39c-.18-1.26-.44-2.41-.68-3.53a26.12,26.12,0,0,1-.86-7.47c.28-5.63,3.17-10.78,6-15.76,3.52-6.26,6.85-12.18,4.89-18.54-2.15-2.68-6.67-11.37-7.27-15.84-1.17-8.6,3.09-19.65,12.24-23.25,3.47-1.36,6.93-1.39,10.28-1.41,3.67,0,7.14,0,10.25-1.91,4-2.36,5.29-7,6.69-11.85,1.08-3.77,2.19-7.66,4.6-10.88,2.8-3.74,7.72-7.87,13.14-8.22a11.07,11.07,0,0,1,8.82,3.56c5.5,5.66,8.11,14.73,8.25,21.22.21,9.55.19,19.64-2.44,28.62-1.56,5.32-4.52,9.7-7.38,13.93a81,81,0,0,0-4.76,7.66c-1.2,2.3-2.62,4.67-4,7-3.22,5.4-6.55,11-7.77,16.59-.74,3.45-1.4,6.93-2,10.31-1.17,6.29-2.39,12.79-4.25,19.23-2.09,7.25-8.51,24.06-23.06,24.06m39.35-148.16h-.49c-3.35.22-7.35,2.82-10.2,6.63-2,2.63-2.93,6-4,9.58-1.55,5.41-3.16,11-8.48,14.19-4,2.41-8.23,2.44-12.27,2.47-3.12,0-6.06,0-8.85,1.14-7.22,2.84-10.68,12.07-9.74,19,.5,3.72,5,12.36,6.56,14l.29.32.14.41c2.76,8.18-1.23,15.27-5.08,22.13-2.69,4.79-5.24,9.31-5.47,14a22.83,22.83,0,0,0,.78,6.42c.25,1.18.52,2.4.73,3.79a35.58,35.58,0,0,1,0,8.32c-.11,1.19-.21,2.32-.25,3.43a18,18,0,0,0,4.78,13.26,16.74,16.74,0,0,0,12.12,5.06h.09c11.84,0,17.38-14.79,19.22-21.17s3-12.66,4.16-18.86c.64-3.4,1.3-6.92,2.05-10.42,1.35-6.24,4.86-12.11,8.24-17.79,1.4-2.35,2.73-4.56,3.87-6.76a83.45,83.45,0,0,1,5-8c2.81-4.16,5.46-8.09,6.85-12.82,2.47-8.43,2.48-18.16,2.28-27.41-.15-6.74-3.08-14.35-7.12-18.51a7.06,7.06,0,0,0-5.2-2.37"/></g></g></svg>